ffmpeg version 4.4.2-0ubuntu0.22.04.1 Copyright (c) 2000-2021 the FFmpeg developers
  built with gcc 11 (Ubuntu 11.2.0-19ubuntu1)
  configuration: --prefix=/usr --extra-version=0ubuntu0.22.04.1 --toolchain=hardened --libdir=/usr/lib/x86_64-linux-gnu --incdir=/usr/include/x86_64-linux-gnu --arch=amd64 --enable-gpl --disable-stripping --enable-gnutls --enable-ladspa --enable-libaom --enable-libass --enable-libbluray --enable-libbs2b --enable-libcaca --enable-libcdio --enable-libcodec2 --enable-libdav1d --enable-libflite --enable-libfontconfig --enable-libfreetype --enable-libfribidi --enable-libgme --enable-libgsm --enable-libjack --enable-libmp3lame --enable-libmysofa --enable-libopenjpeg --enable-libopenmpt --enable-libopus --enable-libpulse --enable-librabbitmq --enable-librubberband --enable-libshine --enable-libsnappy --enable-libsoxr --enable-libspeex --enable-libsrt --enable-libssh --enable-libtheora --enable-libtwolame --enable-libvidstab --enable-libvorbis --enable-libvpx --enable-libwebp --enable-libx265 --enable-libxml2 --enable-libxvid --enable-libzimg --enable-libzmq --enable-libzvbi --enable-lv2 --enable-omx --enable-openal --enable-opencl --enable-opengl --enable-sdl2 --enable-pocketsphinx --enable-librsvg --enable-libmfx --enable-libdc1394 --enable-libdrm --enable-libiec61883 --enable-chromaprint --enable-frei0r --enable-libx264 --enable-shared
  libavutil      56. 70.100 / 56. 70.100
  libavcodec     58.134.100 / 58.134.100
  libavformat    58. 76.100 / 58. 76.100
  libavdevice    58. 13.100 / 58. 13.100
  libavfilter     7.110.100 /  7.110.100
  libswscale      5.  9.100 /  5.  9.100
  libswresample   3.  9.100 /  3.  9.100
  libpostproc    55.  9.100 / 55.  9.100
Input #0, flv, from '/storage/32426326/20250630/32426326-20250630-142410-849.flv':
  Metadata:
    5.1             : false
    audiochannels   : 2
    fileSize        : 0
    displayHeight   : 1440
    cdn_ip          : 156.59.188.242
    4.0             : false
    fps             : 60
    encoder         : obs-output module (libobs version 31.0.2)
    displayWidth    : 2560
    4.1             : false
    3.1             : false
    7.1             : false
    2.1             : false
    Title           : 技术主播没有GG
    Artist          : 蓝音BuBuLine (32426326)
    Comment         : mikufans直播间 32426326 的直播录像
                    : 主播名: 蓝音BuBuLine
                    : 直播标题: 技术主播没有GG
                    : 直播分区: 单机游戏·主机游戏
                    : 录制时间: 2025-06-30T14:24:10.9194611+00:00
                    : 直播服务器:
                    : d1--ov-gotcha07b.bilivideo.com [156.59.188.242]
                    : 
                    : 使用 mikufans录播姬 录制 https://rec.danmuji.org
                    : 录播姬版本: 2.17.0
    RecordedBy      : BililiveRecorder mikufans录播姬
    RecordedFrom    : d1--ov-gotcha07b.bilivideo.com
    StreamServers   : d1--ov-gotcha07b.bilivideo.com [156.59.188.242]
    RecorderVersion : 2.17.0+Branch.tags-v2.17.0.Sha.79d60d3b69038634787f3d53faa1124d513cf64a
    StartTime       : Mon, 30 Jun 2025 14:24:10 +0000
    RoomId          : 32426326
    ShortId         : 0
    Name            : 蓝音BuBuLine
    StreamTitle     : 技术主播没有GG
    AreaNameParent  : 单机游戏
    AreaNameChild   : 主机游戏
  Duration: 07:14:56.58, start: 0.035000, bitrate: 8787 kb/s
  Stream #0:0: Video: h264 (High), yuv420p(tv, bt709, progressive), 2560x1440 [SAR 1:1 DAR 16:9], 10240 kb/s, 60 fps, 60 tbr, 1k tbn, 120 tbc
  Stream #0:1: Audio: aac (LC), 48000 Hz, stereo, fltp, 196 kb/s
Stream mapping:
  Stream #0:0 -> #0:0 (h264 (native) -> png (native))
Press [q] to stop, [?] for help
Output #0, image2, to '/storage/32426326/20250630/32426326-20250630-142410-849.all.thumb.png':
  Metadata:
    5.1             : false
    audiochannels   : 2
    fileSize        : 0
    displayHeight   : 1440
    cdn_ip          : 156.59.188.242
    4.0             : false
    fps             : 60
    AreaNameChild   : 主机游戏
    displayWidth    : 2560
    4.1             : false
    3.1             : false
    7.1             : false
    2.1             : false
    Title           : 技术主播没有GG
    Artist          : 蓝音BuBuLine (32426326)
    Comment         : mikufans直播间 32426326 的直播录像
                    : 主播名: 蓝音BuBuLine
                    : 直播标题: 技术主播没有GG
                    : 直播分区: 单机游戏·主机游戏
                    : 录制时间: 2025-06-30T14:24:10.9194611+00:00
                    : 直播服务器:
                    : d1--ov-gotcha07b.bilivideo.com [156.59.188.242]
                    : 
                    : 使用 mikufans录播姬 录制 https://rec.danmuji.org
                    : 录播姬版本: 2.17.0
    RecordedBy      : BililiveRecorder mikufans录播姬
    RecordedFrom    : d1--ov-gotcha07b.bilivideo.com
    StreamServers   : d1--ov-gotcha07b.bilivideo.com [156.59.188.242]
    RecorderVersion : 2.17.0+Branch.tags-v2.17.0.Sha.79d60d3b69038634787f3d53faa1124d513cf64a
    StartTime       : Mon, 30 Jun 2025 14:24:10 +0000
    RoomId          : 32426326
    ShortId         : 0
    Name            : 蓝音BuBuLine
    StreamTitle     : 技术主播没有GG
    AreaNameParent  : 单机游戏
    encoder         : Lavf58.76.100
  Stream #0:0: Video: png, rgb24(pc, gbr/bt709/bt709, progressive), 2560x1440 [SAR 1:1 DAR 16:9], q=2-31, 200 kb/s, 60 fps, 60 tbn
    Metadata:
      encoder         : Lavc58.134.100 png
frame=    1 fps=0.0 q=0.0 size=N/A time=00:00:00.00 bitrate=N/A speed=   0x    frame=    1 fps=0.0 q=-0.0 Lsize=N/A time=00:00:00.01 bitrate=N/A speed=0.0599x    
video:417kB audio:0kB subtitle:0kB other streams:0kB global headers:0kB muxing overhead: unknown
ffmpeg version 4.4.2-0ubuntu0.22.04.1 Copyright (c) 2000-2021 the FFmpeg developers
  built with gcc 11 (Ubuntu 11.2.0-19ubuntu1)
  configuration: --prefix=/usr --extra-version=0ubuntu0.22.04.1 --toolchain=hardened --libdir=/usr/lib/x86_64-linux-gnu --incdir=/usr/include/x86_64-linux-gnu --arch=amd64 --enable-gpl --disable-stripping --enable-gnutls --enable-ladspa --enable-libaom --enable-libass --enable-libbluray --enable-libbs2b --enable-libcaca --enable-libcdio --enable-libcodec2 --enable-libdav1d --enable-libflite --enable-libfontconfig --enable-libfreetype --enable-libfribidi --enable-libgme --enable-libgsm --enable-libjack --enable-libmp3lame --enable-libmysofa --enable-libopenjpeg --enable-libopenmpt --enable-libopus --enable-libpulse --enable-librabbitmq --enable-librubberband --enable-libshine --enable-libsnappy --enable-libsoxr --enable-libspeex --enable-libsrt --enable-libssh --enable-libtheora --enable-libtwolame --enable-libvidstab --enable-libvorbis --enable-libvpx --enable-libwebp --enable-libx265 --enable-libxml2 --enable-libxvid --enable-libzimg --enable-libzmq --enable-libzvbi --enable-lv2 --enable-omx --enable-openal --enable-opencl --enable-opengl --enable-sdl2 --enable-pocketsphinx --enable-librsvg --enable-libmfx --enable-libdc1394 --enable-libdrm --enable-libiec61883 --enable-chromaprint --enable-frei0r --enable-libx264 --enable-shared
  libavutil      56. 70.100 / 56. 70.100
  libavcodec     58.134.100 / 58.134.100
  libavformat    58. 76.100 / 58. 76.100
  libavdevice    58. 13.100 / 58. 13.100
  libavfilter     7.110.100 /  7.110.100
  libswscale      5.  9.100 /  5.  9.100
  libswresample   3.  9.100 /  3.  9.100
  libpostproc    55.  9.100 / 55.  9.100
[flv @ 0x561689ea4fc0] Auto-inserting h264_mp4toannexb bitstream filter
Input #0, concat, from '/storage/32426326/20250630/32426326-20250630-142410-849.all.concat.txt':
  Duration: N/A, start: 0.000000, bitrate: 10436 kb/s
  Stream #0:0: Video: h264 (High), yuv420p(tv, bt709, progressive), 2560x1440 [SAR 1:1 DAR 16:9], 10240 kb/s, 60 fps, 60 tbr, 1k tbn, 120 tbc
  Stream #0:1: Audio: aac (LC), 48000 Hz, stereo, fltp, 196 kb/s
Output #0, flv, to '/storage/32426326/20250630/32426326-20250630-142410-849.all.flv':
  Metadata:
    encoder         : Lavf58.76.100
  Stream #0:0: Video: h264 (High) ([7][0][0][0] / 0x0007), yuv420p(tv, bt709, progressive), 2560x1440 [SAR 1:1 DAR 16:9], q=2-31, 10240 kb/s, 60 fps, 60 tbr, 1k tbn, 1k tbc
  Stream #0:1: Audio: aac (LC) ([10][0][0][0] / 0x000A), 48000 Hz, stereo, fltp, 196 kb/s
Stream mapping:
  Stream #0:0 -> #0:0 (copy)
  Stream #0:1 -> #0:1 (copy)
Press [q] to stop, [?] for help
frame=    1 fps=0.0 q=-1.0 size=       0kB time=00:00:00.00 bitrate=N/A speed=   0x    frame= 3331 fps=0.0 q=-1.0 size=   34560kB time=00:00:55.46 bitrate=5104.6kbits/s speed= 111x    frame= 5238 fps=5232 q=-1.0 size=   71168kB time=00:01:27.24 bitrate=6682.4kbits/s speed=87.2x    frame= 7375 fps=4912 q=-1.0 size=  106752kB time=00:02:02.79 bitrate=7121.8kbits/s speed=81.8x    frame= 9023 fps=4507 q=-1.0 size=  141056kB time=00:02:30.26 bitrate=7689.7kbits/s speed=75.1x    frame=10683 fps=4269 q=-1.0 size=  175360kB time=00:02:57.91 bitrate=8074.4kbits/s speed=71.1x    frame=12345 fps=4110 q=-1.0 size=  210176kB time=00:03:25.56 bitrate=8375.9kbits/s speed=68.4x    frame=14051 fps=4010 q=-1.0 size=  245504kB time=00:03:53.98 bitrate=8595.4kbits/s speed=66.8x    frame=15760 fps=3936 q=-1.0 size=  281088kB time=00:04:22.47 bitrate=8773.0kbits/s speed=65.5x    frame=17479 fps=3880 q=-1.0 size=  316672kB time=00:04:51.10 bitrate=8911.4kbits/s speed=64.6x    frame=19293 fps=3855 q=-1.0 size=  354560kB time=00:05:21.30 bitrate=9039.9kbits/s speed=64.2x    frame=21071 fps=3828 q=-1.0 size=  391424kB time=00:05:50.93 bitrate=9137.2kbits/s speed=63.8x    frame=22877 fps=3810 q=-1.0 size=  429056kB time=00:06:21.02 bitrate=9224.7kbits/s speed=63.5x    frame=24783 fps=3810 q=-1.0 size=  468224kB time=00:06:52.74 bitrate=9293.1kbits/s speed=63.5x    frame=26517 fps=3785 q=-1.0 size=  504576kB time=00:07:21.62 bitrate=9359.7kbits/s speed=  63x    frame=28326 fps=3774 q=-1.0 size=  542208kB time=00:07:51.75 bitrate=9415.4kbits/s speed=62.9x    frame=30198 fps=3772 q=-1.0 size=  580864kB time=00:08:22.96 bitrate=9460.8kbits/s speed=62.8x    frame=31880 fps=3748 q=-1.0 size=  615936kB time=00:08:50.98 bitrate=9502.6kbits/s speed=62.4x    frame=33749 fps=3747 q=-1.0 size=  654848kB time=00:09:22.10 bitrate=9543.7kbits/s speed=62.4x    frame=35593 fps=3744 q=-1.0 size=  692992kB time=00:09:52.84 bitrate=9575.9kbits/s speed=62.4x    frame=37410 fps=3739 q=-1.0 size=  730880kB time=00:10:23.07 bitrate=9609.4kbits/s speed=62.3x    frame=39313 fps=3742 q=-1.0 size=  770560kB time=00:10:54.79 bitrate=9640.3kbits/s speed=62.3x    frame=41232 fps=3746 q=-1.0 size=  809216kB time=00:11:26.76 bitrate=9652.7kbits/s speed=62.4x    frame=43447 fps=3776 q=-1.0 size=  849920kB time=00:12:03.65 bitrate=9621.3kbits/s speed=62.9x    frame=45351 fps=3777 q=-1.0 size=  889600kB time=00:12:35.36 bitrate=9647.8kbits/s speed=62.9x    frame=47702 fps=3814 q=-1.0 size=  930048kB time=00:13:14.54 bitrate=9589.1kbits/s speed=63.5x    frame=49608 fps=3814 q=-1.0 size=  969984kB time=00:13:46.29 bitrate=9616.5kbits/s speed=63.5x    frame=51590 fps=3819 q=-1.0 size= 1010688kB time=00:14:19.28 bitrate=9635.5kbits/s speed=63.6x    frame=53246 fps=3801 q=-1.0 size= 1044992kB time=00:14:46.88 bitrate=9652.4kbits/s speed=63.3x    frame=55215 fps=3805 q=-1.0 size= 1085952kB time=00:15:19.70 bitrate=9672.8kbits/s speed=63.4x    frame=57027 fps=3799 q=-1.0 size= 1123584kB time=00:15:49.87 bitrate=9690.1kbits/s speed=63.3x    frame=58683 fps=3783 q=-1.0 size= 1157888kB time=00:16:17.49 bitrate=9703.8kbits/s speed=  63x    frame=60350 fps=3769 q=-1.0 size= 1192704kB time=00:16:45.25 bitrate=9719.6kbits/s speed=62.8x    frame=61988 fps=3754 q=-1.0 size= 1227008kB time=00:17:12.53 bitrate=9734.9kbits/s speed=62.5x    frame=64431 fps=3787 q=-1.0 size= 1265152kB time=00:17:53.19 bitrate=9657.3kbits/s speed=63.1x    frame=67023 fps=3827 q=-1.0 size= 1305344kB time=00:18:36.39 bitrate=9578.5kbits/s speed=63.7x    frame=68820 fps=3821 q=-1.0 size= 1342464kB time=00:19:06.30 bitrate=9593.9kbits/s speed=63.6x    frame=70722 fps=3820 q=-1.0 size= 1381888kB time=00:19:37.99 bitrate=9609.9kbits/s speed=63.6x    frame=72585 fps=3818 q=-1.0 size= 1420800kB time=00:20:09.05 bitrate=9626.7kbits/s speed=63.6x    frame=74356 fps=3810 q=-1.0 size= 1457408kB time=00:20:38.51 bitrate=9639.9kbits/s speed=63.5x    frame=76258 fps=3810 q=-1.0 size= 1496832kB time=00:21:10.19 bitrate=9653.7kbits/s speed=63.5x    frame=78133 fps=3809 q=-1.0 size= 1536000kB time=00:21:41.44 bitrate=9668.4kbits/s speed=63.4x    frame=79892 fps=3802 q=-1.0 size= 1572352kB time=00:22:10.73 bitrate=9679.4kbits/s speed=63.3x    frame=81780 fps=3801 q=-1.0 size= 1611520kB time=00:22:42.19 bitrate=9691.4kbits/s speed=63.3x    frame=83478 fps=3792 q=-1.0 size= 1646848kB time=00:23:10.48 bitrate=9702.3kbits/s speed=63.2x    frame=85344 fps=3791 q=-1.0 size= 1686016kB time=00:23:41.56 bitrate=9715.9kbits/s speed=63.1x    frame=87189 fps=3788 q=-1.0 size= 1723904kB time=00:24:12.28 bitrate=9724.2kbits/s speed=63.1x    frame=88950 fps=3783 q=-1.0 size= 1760512kB time=00:24:41.62 bitrate=9734.0kbits/s speed=  63x    frame=90902 fps=3785 q=-1.0 size= 1801216kB time=00:25:14.12 bitrate=9745.3kbits/s speed=  63x    frame=92766 fps=3784 q=-1.0 size= 1839872kB time=00:25:45.18 bitrate=9754.3kbits/s speed=  63x    frame=94557 fps=3780 q=-1.0 size= 1877248kB time=00:26:15.01 bitrate=9764.0kbits/s speed=  63x    frame=96736 fps=3791 q=-1.0 size= 1917696kB time=00:26:51.31 bitrate=9749.7kbits/s speed=63.2x    frame=98804 fps=3798 q=-1.0 size= 1954560kB time=00:27:25.72 bitrate=9729.3kbits/s speed=63.3x    frame=100717 fps=3798 q=-1.0 size= 1993728kB time=00:27:57.61 bitrate=9735.6kbits/s speed=63.3x    frame=102490 fps=3793 q=-1.0 size= 2030592kB time=00:28:27.11 bitrate=9744.3kbits/s speed=63.2x    frame=104251 fps=3789 q=-1.0 size= 2067200kB time=00:28:56.47 bitrate=9752.2kbits/s speed=63.1x    frame=106124 fps=3788 q=-1.0 size= 2106112kB time=00:29:27.67 bitrate=9760.4kbits/s speed=63.1x    frame=108095 fps=3790 q=-1.0 size= 2147072kB time=00:30:00.51 bitrate=9768.8kbits/s speed=63.1x    frame=109977 fps=3790 q=-1.0 size= 2185984kB time=00:30:31.82 bitrate=9775.8kbits/s speed=63.1x    frame=111901 fps=3791 q=-1.0 size= 2226176kB time=00:31:03.84 bitrate=9784.5kbits/s speed=63.1x    frame=113758 fps=3790 q=-1.0 size= 2264832kB time=00:31:34.79 bitrate=9791.8kbits/s speed=63.1x    frame=115540 fps=3786 q=-1.0 size= 2301696kB time=00:32:04.46 bitrate=9797.8kbits/s speed=63.1x    frame=117510 fps=3788 q=-1.0 size= 2342656kB time=00:32:37.27 bitrate=9805.0kbits/s speed=63.1x    frame=119281 fps=3784 q=-1.0 size= 2379520kB time=00:33:06.76 bitrate=9811.4kbits/s speed=  63x    frame=121085 fps=3782 q=-1.0 size= 2416896kB time=00:33:36.81 bitrate=9817.1kbits/s speed=  63x    frame=122966 fps=3781 q=-1.0 size= 2456064kB time=00:34:08.16 bitrate=9823.5kbits/s speed=  63x    frame=124780 fps=3779 q=-1.0 size= 2493440kB time=00:34:38.35 bitrate=9828.1kbits/s speed=62.9x    frame=126896 fps=3786 q=-1.0 size= 2533376kB time=00:35:13.61 bitrate=9818.9kbits/s speed=63.1x    frame=129135 fps=3796 q=-1.0 size= 2572288kB time=00:35:50.90 bitrate=9796.9kbits/s speed=63.2x    frame=130828 fps=3790 q=-1.0 size= 2607360kB time=00:36:19.11 bitrate=9801.9kbits/s speed=63.1x    frame=132474 fps=3783 q=-1.0 size= 2641664kB time=00:36:46.52 bitrate=9807.5kbits/s speed=  63x    frame=134148 fps=3777 q=-1.0 size= 2676480kB time=00:37:14.44 bitrate=9812.6kbits/s speed=62.9x    frame=135884 fps=3772 q=-1.0 size= 2712320kB time=00:37:43.35 bitrate=9817.0kbits/s speed=62.8x    frame=137739 fps=3771 q=-1.0 size= 2750976kB time=00:38:14.24 bitrate=9822.8kbits/s speed=62.8x    frame=139447 fps=3767 q=-1.0 size= 2786816kB time=00:38:42.71 bitrate=9828.8kbits/s speed=62.7x    frame=141263 fps=3765 q=-1.0 size= 2824448kB time=00:39:12.91 bitrate=9833.7kbits/s speed=62.7x    frame=143093 fps=3763 q=-1.0 size= 2862336kB time=00:39:43.41 bitrate=9838.1kbits/s speed=62.7x    frame=144797 fps=3759 q=-1.0 size= 2897664kB time=00:40:11.77 bitrate=9842.4kbits/s speed=62.6x    frame=146665 fps=3758 q=-1.0 size= 2936576kB time=00:40:42.92 bitrate=9847.4kbits/s speed=62.6x    frame=148402 fps=3755 q=-1.0 size= 2972672kB time=00:41:11.86 bitrate=9851.7kbits/s speed=62.5x    frame=150037 fps=3749 q=-1.0 size= 3006720kB time=00:41:39.09 bitrate=9856.0kbits/s speed=62.4x    frame=151718 fps=3744 q=-1.0 size= 3041280kB time=00:42:07.06 bitrate=9859.0kbits/s speed=62.4x    frame=153367 fps=3738 q=-1.0 size= 3075840kB time=00:42:34.56 bitrate=9863.6kbits/s speed=62.3x    frame=155051 fps=3734 q=-1.0 size= 3110656kB time=00:43:02.56 bitrate=9867.1kbits/s speed=62.2x    frame=156694 fps=3729 q=-1.0 size= 3144960kB time=00:43:29.96 bitrate=9871.2kbits/s speed=62.1x    frame=158365 fps=3724 q=-1.0 size= 3179776kB time=00:43:57.79 bitrate=9875.2kbits/s speed=  62x    frame=160295 fps=3726 q=-1.0 size= 3214592kB time=00:44:29.95 bitrate=9863.1kbits/s speed=62.1x    frame=162436 fps=3732 q=-1.0 size= 3250688kB time=00:45:05.61 bitrate=9842.4kbits/s speed=62.2x    frame=164096 fps=3727 q=-1.0 size= 3284992kB time=00:45:33.27 bitrate=9845.6kbits/s speed=62.1x    frame=165844 fps=3725 q=-1.0 size= 3321088kB time=00:46:02.37 bitrate=9848.9kbits/s speed=  62x    frame=167563 fps=3721 q=-1.0 size= 3356928kB time=00:46:30.98 bitrate=9853.1kbits/s speed=  62x    frame=169451 fps=3722 q=-1.0 size= 3396096kB time=00:47:02.46 bitrate=9856.9kbits/s speed=  62x    frame=171319 fps=3722 q=-1.0 size= 3435008kB time=00:47:33.58 bitrate=9861.1kbits/s speed=  62x    frame=173062 fps=3719 q=-1.0 size= 3471104kB time=00:48:02.58 bitrate=9864.5kbits/s speed=  62x    frame=174959 fps=3720 q=-1.0 size= 3510784kB time=00:48:34.14 bitrate=9869.2kbits/s speed=  62x    frame=176900 fps=3722 q=-1.0 size= 3550976kB time=00:49:06.50 bitrate=9872.6kbits/s speed=  62x    frame=178640 fps=3719 q=-1.0 size= 3587072kB time=00:49:35.48 bitrate=9875.8kbits/s speed=61.9x    frame=180647 fps=3722 q=-1.0 size= 3628800kB time=00:50:08.90 bitrate=9879.7kbits/s speed=  62x    frame=182555 fps=3723 q=-1.0 size= 3668480kB time=00:50:40.69 bitrate=9883.3kbits/s speed=  62x    frame=184271 fps=3720 q=-1.0 size= 3704320kB time=00:51:09.24 bitrate=9887.1kbits/s speed=  62x    frame=186233 fps=3722 q=-1.0 size= 3744768kB time=00:51:41.91 bitrate=9889.8kbits/s speed=  62x    frame=188111 fps=3723 q=-1.0 size= 3784192kB time=00:52:13.17 bitrate=9894.1kbits/s speed=  62x    frame=189869 fps=3721 q=-1.0 size= 3820800kB time=00:52:42.48 bitrate=9897.3kbits/s speed=  62x    frame=191600 fps=3718 q=-1.0 size= 3856640kB time=00:53:11.29 bitrate=9899.9kbits/s speed=61.9x    frame=193420 fps=3717 q=-1.0 size= 3892992kB time=00:53:41.61 bitrate=9899.2kbits/s speed=61.9x    frame=195398 fps=3719 q=-1.0 size= 3929856kB time=00:54:14.54 bitrate=9891.8kbits/s speed=  62x    frame=197507 fps=3724 q=-1.0 size= 3965696kB time=00:54:49.69 bitrate=9875.4kbits/s speed=  62x    frame=199456 fps=3726 q=-1.0 size= 4005888kB time=00:55:22.18 bitrate=9877.9kbits/s speed=62.1x    frame=201156 fps=3723 q=-1.0 size= 4041472kB time=00:55:50.50 bitrate=9881.4kbits/s speed=  62x    frame=203042 fps=3723 q=-1.0 size= 4080896kB time=00:56:21.89 bitrate=9885.2kbits/s speed=  62x    frame=204886 fps=3723 q=-1.0 size= 4119040kB time=00:56:52.65 bitrate=9887.7kbits/s speed=  62x    frame=206672 fps=3721 q=-1.0 size= 4155904kB time=00:57:22.36 bitrate=9890.1kbits/s speed=  62x    frame=208433 fps=3720 q=-1.0 size= 4192256kB time=00:57:51.71 bitrate=9892.2kbits/s speed=  62x    frame=210293 fps=3720 q=-1.0 size= 4230912kB time=00:58:22.68 bitrate=9895.2kbits/s speed=  62x    frame=212034 fps=3718 q=-1.0 size= 4267264kB time=00:58:51.69 bitrate=9898.2kbits/s speed=61.9x    frame=213958 fps=3719 q=-1.0 size= 4307200kB time=00:59:23.76 bitrate=9900.9kbits/s speed=61.9x    frame=215789 fps=3718 q=-1.0 size= 4345088kB time=00:59:54.28 bitrate=9903.2kbits/s speed=61.9x    frame=217551 fps=3716 q=-1.0 size= 4381696kB time=01:00:23.61 bitrate=9905.8kbits/s speed=61.9x    frame=219167 fps=3712 q=-1.0 size= 4415488kB time=01:00:50.55 bitrate=9908.5kbits/s speed=61.8x    frame=220980 fps=3711 q=-1.0 size= 4453120kB time=01:01:20.75 bitrate=9911.0kbits/s speed=61.8x    frame=222672 fps=3709 q=-1.0 size= 4488448kB time=01:01:48.91 bitrate=9913.8kbits/s speed=61.8x    frame=224474 fps=3708 q=-1.0 size= 4525824kB time=01:02:18.92 bitrate=9916.1kbits/s speed=61.8x    frame=226335 fps=3708 q=-1.0 size= 4564480kB time=01:02:49.94 bitrate=9918.5kbits/s speed=61.8x    frame=228049 fps=3706 q=-1.0 size= 4600064kB time=01:03:18.48 bitrate=9920.7kbits/s speed=61.7x    frame=229867 fps=3705 q=-1.0 size= 4637952kB time=01:03:48.73 bitrate=9923.4kbits/s speed=61.7x    frame=231779 fps=3706 q=-1.0 size= 4677376kB time=01:04:20.60 bitrate=9925.1kbits/s speed=61.7x    frame=233864 fps=3710 q=-1.0 size= 4714240kB time=01:04:55.34 bitrate=9914.2kbits/s speed=61.8x    frame=235688 fps=3709 q=-1.0 size= 4752384kB time=01:05:25.71 bitrate=9917.1kbits/s speed=61.8x    frame=238498 fps=3724 q=-1.0 size= 4789248kB time=01:06:12.50 bitrate=9876.3kbits/s speed=  62x    frame=240191 fps=3721 q=-1.0 size= 4824832kB time=01:06:40.70 bitrate=9879.5kbits/s speed=  62x    frame=241944 fps=3720 q=-1.0 size= 4860928kB time=01:07:09.89 bitrate=9881.3kbits/s speed=  62x    frame=243755 fps=3719 q=-1.0 size= 4898560kB time=01:07:40.04 bitrate=9883.9kbits/s speed=61.9x    frame=245562 fps=3718 q=-1.0 size= 4936192kB time=01:08:10.14 bitrate=9886.5kbits/s speed=61.9x    frame=247508 fps=3719 q=-1.0 size= 4976640kB time=01:08:42.57 bitrate=9889.1kbits/s speed=  62x    frame=249186 fps=3717 q=-1.0 size= 5011456kB time=01:09:10.52 bitrate=9891.2kbits/s speed=61.9x    frame=251070 fps=3717 q=-1.0 size= 5050624kB time=01:09:41.91 bitrate=9893.7kbits/s speed=61.9x    frame=252889 fps=3716 q=-1.0 size= 5088512kB time=01:10:12.19 bitrate=9896.3kbits/s speed=61.9x    frame=254691 fps=3716 q=-1.0 size= 5125888kB time=01:10:42.21 bitrate=9898.4kbits/s speed=61.9x    frame=256603 fps=3716 q=-1.0 size= 5165568kB time=01:11:14.08 bitrate=9900.7kbits/s speed=61.9x    frame=258411 fps=3716 q=-1.0 size= 5202944kB time=01:11:44.16 bitrate=9902.6kbits/s speed=61.9x    frame=260300 fps=3716 q=-1.0 size= 5242368kB time=01:12:15.63 bitrate=9905.2kbits/s speed=61.9x    frame=262069 fps=3715 q=-1.0 size= 5279232kB time=01:12:45.12 bitrate=9907.5kbits/s speed=61.9x    frame=263933 fps=3715 q=-1.0 size= 5317888kB time=01:13:16.16 bitrate=9909.6kbits/s speed=61.9x    frame=265910 fps=3717 q=-1.0 size= 5358848kB time=01:13:49.10 bitrate=9911.6kbits/s speed=61.9x    frame=267684 fps=3715 q=-1.0 size= 5395968kB time=01:14:18.64 bitrate=9914.2kbits/s speed=61.9x    frame=270028 fps=3722 q=-1.0 size= 5436928kB time=01:14:57.69 bitrate=9902.7kbits/s speed=  62x    frame=271980 fps=3723 q=-1.0 size= 5475584kB time=01:15:30.21 bitrate=9901.5kbits/s speed=  62x    frame=274210 fps=3728 q=-1.0 size= 5514752kB time=01:16:07.33 bitrate=9891.3kbits/s speed=62.1x    frame=276119 fps=3729 q=-1.0 size= 5553920kB time=01:16:39.18 bitrate=9892.6kbits/s speed=62.1x    frame=278065 fps=3730 q=-1.0 size= 5594880kB time=01:17:11.59 bitrate=9895.8kbits/s speed=62.1x    frame=279965 fps=3730 q=-1.0 size= 5634048kB time=01:17:43.21 bitrate=9897.5kbits/s speed=62.1x    frame=281931 fps=3732 q=-1.0 size= 5675008kB time=01:18:15.95 bitrate=9899.9kbits/s speed=62.2x    frame=283648 fps=3730 q=-1.0 size= 5710848kB time=01:18:44.58 bitrate=9902.1kbits/s speed=62.1x    frame=285629 fps=3731 q=-1.0 size= 5751808kB time=01:19:17.53 bitrate=9904.0kbits/s speed=62.1x    frame=287602 fps=3733 q=-1.0 size= 5792768kB time=01:19:50.44 bitrate=9906.0kbits/s speed=62.2x    frame=289251 fps=3730 q=-1.0 size= 5827072kB time=01:20:17.91 bitrate=9907.9kbits/s speed=62.1x    frame=291207 fps=3731 q=-1.0 size= 5867776kB time=01:20:50.48 bitrate=9910.1kbits/s speed=62.1x    frame=293024 fps=3730 q=-1.0 size= 5905408kB time=01:21:20.75 bitrate=9911.8kbits/s speed=62.1x    frame=294902 fps=3730 q=-1.0 size= 5944576kB time=01:21:52.03 bitrate=9914.0kbits/s speed=62.1x    frame=296793 fps=3731 q=-1.0 size= 5983744kB time=01:22:23.52 bitrate=9915.8kbits/s speed=62.1x    frame=298526 fps=3729 q=-1.0 size= 6019840kB time=01:22:52.38 bitrate=9917.7kbits/s speed=62.1x    frame=300509 fps=3730 q=-1.0 size= 6060800kB time=01:23:25.38 bitrate=9919.3kbits/s speed=62.1x    frame=302375 fps=3730 q=-1.0 size= 6099712kB time=01:23:56.49 bitrate=9921.4kbits/s speed=62.1x    frame=304411 fps=3732 q=-1.0 size= 6137088kB time=01:24:30.43 bitrate=9915.3kbits/s speed=62.2x    frame=306330 fps=3733 q=-1.0 size= 6176768kB time=01:25:02.39 bitrate=9916.9kbits/s speed=62.2x    frame=308557 fps=3737 q=-1.0 size= 6215680kB time=01:25:39.48 bitrate=9907.4kbits/s speed=62.3x    frame=310380 fps=3737 q=-1.0 size= 6253568kB time=01:26:09.83 bitrate=9909.3kbits/s speed=62.2x    frame=312369 fps=3738 q=-1.0 size= 6294784kB time=01:26:42.99 bitrate=9911.0kbits/s speed=62.3x    frame=314198 fps=3738 q=-1.0 size= 6332928kB time=01:27:13.46 bitrate=9913.0kbits/s speed=62.3x    frame=316169 fps=3739 q=-1.0 size= 6373888kB time=01:27:46.28 bitrate=9914.9kbits/s speed=62.3x    frame=318110 fps=3740 q=-1.0 size= 6414336kB time=01:28:18.57 bitrate=9917.1kbits/s speed=62.3x    frame=319778 fps=3737 q=-1.0 size= 6448896kB time=01:28:46.37 bitrate=9918.5kbits/s speed=62.3x    frame=321655 fps=3738 q=-1.0 size= 6487808kB time=01:29:17.66 bitrate=9920.0kbits/s speed=62.3x    frame=323508 fps=3737 q=-1.0 size= 6526208kB time=01:29:48.51 bitrate=9921.6kbits/s speed=62.3x    frame=325182 fps=3735 q=-1.0 size= 6561024kB time=01:30:16.37 bitrate=9923.2kbits/s speed=62.2x    frame=327157 fps=3736 q=-1.0 size= 6602496kB time=01:30:49.27 bitrate=9925.7kbits/s speed=62.2x    frame=328992 fps=3736 q=-1.0 size= 6640384kB time=01:31:19.85 bitrate=9926.9kbits/s speed=62.2x    frame=330928 fps=3737 q=-1.0 size= 6680832kB time=01:31:52.05 bitrate=9929.0kbits/s speed=62.2x    frame=332839 fps=3737 q=-1.0 size= 6720512kB time=01:32:23.91 bitrate=9930.6kbits/s speed=62.2x    frame=334595 fps=3736 q=-1.0 size= 6756864kB time=01:32:53.14 bitrate=9932.0kbits/s speed=62.2x    frame=336503 fps=3736 q=-1.0 size= 6796288kB time=01:33:24.95 bitrate=9933.2kbits/s speed=62.2x    frame=338475 fps=3737 q=-1.0 size= 6837504kB time=01:33:57.75 bitrate=9935.3kbits/s speed=62.3x    frame=340594 fps=3740 q=-1.0 size= 6875904kB time=01:34:33.05 bitrate=9928.9kbits/s speed=62.3x    frame=342672 fps=3742 q=-1.0 size= 6918656kB time=01:35:07.64 bitrate=9930.1kbits/s speed=62.3x    frame=344894 fps=3746 q=-1.0 size= 6956288kB time=01:35:44.64 bitrate=9919.8kbits/s speed=62.4x    frame=346749 fps=3746 q=-1.0 size= 6994944kB time=01:36:15.54 bitrate=9921.6kbits/s speed=62.4x    frame=348703 fps=3747 q=-1.0 size= 7035392kB time=01:36:48.12 bitrate=9923.0kbits/s speed=62.4x    frame=350537 fps=3746 q=-1.0 size= 7073536kB time=01:37:18.68 bitrate=9924.6kbits/s speed=62.4x    frame=352372 fps=3746 q=-1.0 size= 7111424kB time=01:37:49.22 bitrate=9925.8kbits/s speed=62.4x    frame=354365 fps=3747 q=-1.0 size= 7153152kB time=01:38:22.38 bitrate=9928.0kbits/s speed=62.4x    frame=356176 fps=3747 q=-1.0 size= 7190528kB time=01:38:52.58 bitrate=9929.0kbits/s speed=62.4x    frame=358114 fps=3747 q=-1.0 size= 7230976kB time=01:39:24.83 bitrate=9930.9kbits/s speed=62.4x    frame=359951 fps=3747 q=-1.0 size= 7269120kB time=01:39:55.43 bitrate=9932.3kbits/s speed=62.4x    frame=361757 fps=3746 q=-1.0 size= 7306496kB time=01:40:25.50 bitrate=9933.6kbits/s speed=62.4x    frame=363579 fps=3746 q=-1.0 size= 7344896kB time=01:40:55.89 bitrate=9935.7kbits/s speed=62.4x    frame=365337 fps=3744 q=-1.0 size= 7380992kB time=01:41:25.17 bitrate=9936.5kbits/s speed=62.4x    frame=367291 fps=3745 q=-1.0 size= 7421696kB time=01:41:57.72 bitrate=9938.1kbits/s speed=62.4x    frame=369155 fps=3745 q=-1.0 size= 7460352kB time=01:42:28.76 bitrate=9939.4kbits/s speed=62.4x    frame=370998 fps=3745 q=-1.0 size= 7498496kB time=01:42:59.47 bitrate=9940.6kbits/s speed=62.4x    frame=372969 fps=3746 q=-1.0 size= 7539712kB time=01:43:32.30 bitrate=9942.4kbits/s speed=62.4x    frame=374706 fps=3744 q=-1.0 size= 7575808kB time=01:44:01.23 bitrate=9943.7kbits/s speed=62.4x    frame=376960 fps=3748 q=-1.0 size= 7617792kB time=01:44:38.78 bitrate=9939.0kbits/s speed=62.4x    frame=379418 fps=3754 q=-1.0 size= 7657728kB time=01:45:19.70 bitrate=9926.4kbits/s speed=62.5x    frame=381150 fps=3752 q=-1.0 size= 7693824kB time=01:45:48.55 bitrate=9927.9kbits/s speed=62.5x    frame=383007 fps=3752 q=-1.0 size= 7732224kB time=01:46:19.48 bitrate=9929.1kbits/s speed=62.5x    frame=384827 fps=3752 q=-1.0 size= 7770368kB time=01:46:49.81 bitrate=9930.8kbits/s speed=62.5x    frame=386703 fps=3752 q=-1.0 size= 7809280kB time=01:47:21.08 bitrate=9932.1kbits/s speed=62.5x    frame=388653 fps=3752 q=-1.0 size= 7849984kB time=01:47:53.58 bitrate=9933.8kbits/s speed=62.5x    frame=390383 fps=3751 q=-1.0 size= 7885568kB time=01:48:22.37 bitrate=9934.6kbits/s speed=62.5x    frame=392295 fps=3751 q=-1.0 size= 7925248kB time=01:48:54.21 bitrate=9935.9kbits/s speed=62.5x    frame=394191 fps=3752 q=-1.0 size= 7964672kB time=01:49:25.78 bitrate=9937.4kbits/s speed=62.5x    frame=395866 fps=3750 q=-1.0 size= 7999744kB time=01:49:53.71 bitrate=9938.8kbits/s speed=62.5x    frame=397749 fps=3750 q=-1.0 size= 8038912kB time=01:50:25.08 bitrate=9940.2kbits/s speed=62.5x    frame=399588 fps=3749 q=-1.0 size= 8077056kB time=01:50:55.71 bitrate=9941.4kbits/s speed=62.5x    frame=401338 fps=3748 q=-1.0 size= 8113152kB time=01:51:24.84 bitrate=9942.3kbits/s speed=62.4x    frame=403266 fps=3749 q=-1.0 size= 8153344kB time=01:51:56.94 bitrate=9943.8kbits/s speed=62.4x    frame=405056 fps=3748 q=-1.0 size= 8190464kB time=01:52:26.80 bitrate=9944.9kbits/s speed=62.4x    frame=406999 fps=3748 q=-1.0 size= 8231168kB time=01:52:59.15 bitrate=9946.6kbits/s speed=62.4x    frame=408939 fps=3749 q=-1.0 size= 8271360kB time=01:53:31.46 bitrate=9947.8kbits/s speed=62.4x    frame=410708 fps=3748 q=-1.0 size= 8308736kB time=01:54:00.93 bitrate=9949.7kbits/s speed=62.4x    frame=412634 fps=3749 q=-1.0 size= 8348160kB time=01:54:33.01 bitrate=9950.2kbits/s speed=62.4x    frame=414929 fps=3752 q=-1.0 size= 8388608kB time=01:55:11.23 bitrate=9943.2kbits/s speed=62.5x    frame=416998 fps=3754 q=-1.0 size= 8424192kB time=01:55:45.65 bitrate=9935.8kbits/s speed=62.5x    frame=418974 fps=3755 q=-1.0 size= 8465408kB time=01:56:18.59 bitrate=9937.3kbits/s speed=62.5x    frame=420786 fps=3754 q=-1.0 size= 8502784kB time=01:56:48.79 bitrate=9938.2kbits/s speed=62.5x    frame=422644 fps=3754 q=-1.0 size= 8541440kB time=01:57:19.73 bitrate=9939.5kbits/s speed=62.5x    frame=424527 fps=3754 q=-1.0 size= 8580608kB time=01:57:51.10 bitrate=9940.8kbits/s speed=62.5x    frame=426436 fps=3754 q=-1.0 size= 8620288kB time=01:58:22.92 bitrate=9942.0kbits/s speed=62.5x    frame=428350 fps=3755 q=-1.0 size= 8660224kB time=01:58:54.77 bitrate=9943.5kbits/s speed=62.5x    frame=430302 fps=3755 q=-1.0 size= 8700928kB time=01:59:27.28 bitrate=9944.9kbits/s speed=62.6x    frame=432209 fps=3756 q=-1.0 size= 8740352kB time=01:59:59.04 bitrate=9945.9kbits/s speed=62.6x    frame=434097 fps=3756 q=-1.0 size= 8779520kB time=02:00:30.50 bitrate=9947.0kbits/s speed=62.6x    frame=435961 fps=3756 q=-1.0 size= 8818176kB time=02:01:01.54 bitrate=9948.1kbits/s speed=62.6x    frame=437717 fps=3755 q=-1.0 size= 8855040kB time=02:01:30.80 bitrate=9949.6kbits/s speed=62.5x    frame=439407 fps=3753 q=-1.0 size= 8889856kB time=02:01:58.96 bitrate=9950.3kbits/s speed=62.5x    frame=441167 fps=3752 q=-1.0 size= 8926464kB time=02:02:28.27 bitrate=9951.4kbits/s speed=62.5x    frame=442997 fps=3752 q=-1.0 size= 8964608kB time=02:02:58.75 bitrate=9952.6kbits/s speed=62.5x    frame=444977 fps=3752 q=-1.0 size= 9005312kB time=02:03:31.76 bitrate=9953.3kbits/s speed=62.5x    frame=446671 fps=3751 q=-1.0 size= 9040384kB time=02:03:59.95 bitrate=9954.2kbits/s speed=62.5x    frame=448866 fps=3754 q=-1.0 size= 9080320kB time=02:04:36.54 bitrate=9949.2kbits/s speed=62.5x    frame=450700 fps=3753 q=-1.0 size= 9118720kB time=02:05:07.10 bitrate=9950.6kbits/s speed=62.5x    frame=452729 fps=3754 q=-1.0 size= 9154560kB time=02:05:40.88 bitrate=9945.0kbits/s speed=62.5x    frame=454615 fps=3754 q=-1.0 size= 9193728kB time=02:06:12.33 bitrate=9946.1kbits/s speed=62.5x    frame=456505 fps=3755 q=-1.0 size= 9232640kB time=02:06:43.77 bitrate=9946.9kbits/s speed=62.5x    frame=458223 fps=3753 q=-1.0 size= 9268480kB time=02:07:12.39 bitrate=9948.0kbits/s speed=62.5x    frame=460127 fps=3753 q=-1.0 size= 9307904kB time=02:07:44.13 bitrate=9949.0kbits/s speed=62.5x    frame=461901 fps=3753 q=-1.0 size= 9345024kB time=02:08:13.67 bitrate=9950.3kbits/s speed=62.5x    frame=463826 fps=3753 q=-1.0 size= 9384960kB time=02:08:45.72 bitrate=9951.4kbits/s speed=62.5x    frame=465782 fps=3754 q=-1.0 size= 9425408kB time=02:09:18.28 bitrate=9952.3kbits/s speed=62.5x    frame=467468 fps=3752 q=-1.0 size= 9460736kB time=02:09:46.36 bitrate=9953.6kbits/s speed=62.5x    frame=469382 fps=3752 q=-1.0 size= 9500416kB time=02:10:18.21 bitrate=9954.6kbits/s speed=62.5x    frame=471243 fps=3752 q=-1.0 size= 9539072kB time=02:10:49.21 bitrate=9955.7kbits/s speed=62.5x    frame=473132 fps=3752 q=-1.0 size= 9578240kB time=02:11:20.69 bitrate=9956.6kbits/s speed=62.5x    frame=475510 fps=3756 q=-1.0 size= 9619456kB time=02:12:00.29 bitrate=9949.4kbits/s speed=62.6x    frame=479314 fps=3771 q=-1.0 size= 9654784kB time=02:13:03.65 bitrate=9906.7kbits/s speed=62.8x    frame=483179 fps=3787 q=-1.0 size= 9692416kB time=02:14:08.03 bitrate=9865.8kbits/s speed=63.1x    frame=485584 fps=3791 q=-1.0 size= 9732864kB time=02:14:48.08 bitrate=9857.9kbits/s speed=63.1x    frame=488327 fps=3797 q=-1.0 size= 9771008kB time=02:15:33.81 bitrate=9840.9kbits/s speed=63.3x    frame=490723 fps=3801 q=-1.0 size= 9809920kB time=02:16:13.72 bitrate=9831.8kbits/s speed=63.3x    frame=493280 fps=3806 q=-1.0 size= 9849344kB time=02:16:56.34 bitrate=9820.2kbits/s speed=63.4x    frame=495660 fps=3810 q=-1.0 size= 9885952kB time=02:17:35.99 bitrate=9809.3kbits/s speed=63.5x    frame=498165 fps=3814 q=-1.0 size= 9927424kB time=02:18:17.70 bitrate=9801.0kbits/s speed=63.5x    frame=500524 fps=3818 q=-1.0 size= 9966080kB time=02:18:57.03 bitrate=9792.7kbits/s speed=63.6x    frame=503037 fps=3823 q=-1.0 size=10004224kB time=02:19:38.89 bitrate=9781.1kbits/s speed=63.7x    frame=505672 fps=3828 q=-1.0 size=10043136kB time=02:20:22.82 bitrate=9767.9kbits/s speed=63.8x    frame=508143 fps=3832 q=-1.0 size=10076416kB time=02:21:03.95 bitrate=9752.6kbits/s speed=63.8x    frame=510203 fps=3833 q=-1.0 size=10113792kB time=02:21:38.28 bitrate=9749.3kbits/s speed=63.8x    frame=512721 fps=3838 q=-1.0 size=10151168kB time=02:22:20.22 bitrate=9737.3kbits/s speed=63.9x    frame=515637 fps=3845 q=-1.0 size=10184704kB time=02:23:08.80 bitrate=9714.2kbits/s speed=  64x    frame=517780 fps=3847 q=-1.0 size=10222336kB time=02:23:44.48 bitrate=9709.7kbits/s speed=64.1x    frame=519970 fps=3849 q=-1.0 size=10260480kB time=02:24:20.97 bitrate=9704.9kbits/s speed=64.1x    frame=522092 fps=3850 q=-1.0 size=10299136kB time=02:24:56.34 bitrate=9701.8kbits/s speed=64.1x    frame=524640 fps=3855 q=-1.0 size=10337024kB time=02:25:38.80 bitrate=9690.2kbits/s speed=64.2x    frame=527067 fps=3858 q=-1.0 size=10373632kB time=02:26:19.25 bitrate=9679.7kbits/s speed=64.3x    frame=529113 fps=3859 q=-1.0 size=10411008kB time=02:26:53.30 bitrate=9677.1kbits/s speed=64.3x    frame=531317 fps=3861 q=-1.0 size=10451200kB time=02:27:30.02 bitrate=9674.1kbits/s speed=64.3x    frame=533280 fps=3861 q=-1.0 size=10487296kB time=02:28:02.74 bitrate=9671.8kbits/s speed=64.3x    frame=535549 fps=3864 q=-1.0 size=10526464kB time=02:28:40.52 bitrate=9666.8kbits/s speed=64.4x    frame=537693 fps=3865 q=-1.0 size=10566400kB time=02:29:16.23 bitrate=9664.8kbits/s speed=64.4x    frame=539550 fps=3865 q=-1.0 size=10600960kB time=02:29:47.16 bitrate=9663.0kbits/s speed=64.4x    frame=541625 fps=3866 q=-1.0 size=10640384kB time=02:30:21.74 bitrate=9661.8kbits/s speed=64.4x    frame=543601 fps=3866 q=-1.0 size=10678272kB time=02:30:54.68 bitrate=9660.9kbits/s speed=64.4x    frame=545499 fps=3866 q=-1.0 size=10714112kB time=02:31:26.32 bitrate=9659.6kbits/s speed=64.4x    frame=547577 fps=3867 q=-1.0 size=10753280kB time=02:32:00.90 bitrate=9658.1kbits/s speed=64.4x    frame=549598 fps=3868 q=-1.0 size=10790400kB time=02:32:34.59 bitrate=9655.8kbits/s speed=64.4x    frame=551567 fps=3868 q=-1.0 size=10828544kB time=02:33:07.36 bitrate=9655.4kbits/s speed=64.4x    frame=553791 fps=3870 q=-1.0 size=10868736kB time=02:33:44.42 bitrate=9652.3kbits/s speed=64.5x    frame=555727 fps=3870 q=-1.0 size=10905088kB time=02:34:16.64 bitrate=9650.8kbits/s speed=64.5x    frame=557708 fps=3870 q=-1.0 size=10944000kB time=02:34:49.66 bitrate=9650.9kbits/s speed=64.5x    frame=559894 fps=3872 q=-1.0 size=10984448kB time=02:35:26.10 bitrate=9648.7kbits/s speed=64.5x    frame=561776 fps=3871 q=-1.0 size=11019776kB time=02:35:57.43 bitrate=9647.3kbits/s speed=64.5x    frame=563897 fps=3873 q=-1.0 size=11059456kB time=02:36:32.75 bitrate=9645.6kbits/s speed=64.5x    frame=565717 fps=3872 q=-1.0 size=11092992kB time=02:37:03.09 bitrate=9643.7kbits/s speed=64.5x    frame=567829 fps=3873 q=-1.0 size=11132160kB time=02:37:38.26 bitrate=9641.8kbits/s speed=64.5x    frame=569822 fps=3873 q=-1.0 size=11170816kB time=02:38:11.47 bitrate=9641.4kbits/s speed=64.5x    frame=571765 fps=3873 q=-1.0 size=11207424kB time=02:38:43.85 bitrate=9640.1kbits/s speed=64.5x    frame=573810 fps=3874 q=-1.0 size=11246848kB time=02:39:17.92 bitrate=9639.6kbits/s speed=64.5x    frame=575903 fps=3875 q=-1.0 size=11286528kB time=02:39:52.79 bitrate=9638.4kbits/s speed=64.5x    frame=577828 fps=3875 q=-1.0 size=11322880kB time=02:40:24.87 bitrate=9637.2kbits/s speed=64.5x    frame=579788 fps=3875 q=-1.0 size=11360000kB time=02:40:57.53 bitrate=9636.1kbits/s speed=64.5x    frame=581714 fps=3875 q=-1.0 size=11396352kB time=02:41:29.62 bitrate=9634.9kbits/s speed=64.5x    frame=583590 fps=3875 q=-1.0 size=11432192kB time=02:42:00.84 bitrate=9634.2kbits/s speed=64.5x    frame=585909 fps=3877 q=-1.0 size=11472128kB time=02:42:39.48 bitrate=9629.6kbits/s speed=64.6x    frame=587972 fps=3878 q=-1.0 size=11508480kB time=02:43:13.88 bitrate=9626.2kbits/s speed=64.6x    frame=590347 fps=3881 q=-1.0 size=11547136kB time=02:43:53.42 bitrate=9619.7kbits/s speed=64.6x    frame=592710 fps=3884 q=-1.0 size=11588608kB time=02:44:32.79 bitrate=9615.7kbits/s speed=64.7x    frame=594810 fps=3885 q=-1.0 size=11625984kB time=02:45:07.79 bitrate=9612.6kbits/s speed=64.7x    frame=596802 fps=3885 q=-1.0 size=11665152kB time=02:45:40.97 bitrate=9612.8kbits/s speed=64.7x    frame=599010 fps=3887 q=-1.0 size=11705088kB time=02:46:17.78 bitrate=9610.2kbits/s speed=64.7x    frame=601067 fps=3887 q=-1.0 size=11744000kB time=02:46:52.02 bitrate=9609.1kbits/s speed=64.8x    frame=603152 fps=3888 q=-1.0 size=11785472kB time=02:47:26.76 bitrate=9609.7kbits/s speed=64.8x    frame=606416 fps=3897 q=-1.0 size=11820544kB time=02:48:21.17 bitrate=9586.4kbits/s speed=64.9x    frame=610196 fps=3908 q=-1.0 size=11856896kB time=02:49:24.12 bitrate=9556.3kbits/s speed=65.1x    frame=613474 fps=3917 q=-1.0 size=11893248kB time=02:50:18.72 bitrate=9534.4kbits/s speed=65.2x    frame=617437 fps=3930 q=-1.0 size=11927808kB time=02:51:24.74 bitrate=9500.7kbits/s speed=65.5x    frame=621869 fps=3945 q=-1.0 size=11971072kB time=02:52:38.60 bitrate=9467.2kbits/s speed=65.7x    frame=625943 fps=3959 q=-1.0 size=12008704kB time=02:53:46.48 bitrate=9435.1kbits/s speed=65.9x    frame=628989 fps=3965 q=-1.0 size=12044544kB time=02:54:37.22 bitrate=9417.5kbits/s speed=66.1x    frame=631663 fps=3970 q=-1.0 size=12083456kB time=02:55:21.76 bitrate=9407.9kbits/s speed=66.1x    frame=635442 fps=3981 q=-1.0 size=12117760kB time=02:56:24.75 bitrate=9378.5kbits/s speed=66.3x    frame=638525 fps=3988 q=-1.0 size=12154112kB time=02:57:16.11 bitrate=9361.2kbits/s speed=66.4x    frame=642228 fps=3998 q=-1.0 size=12192256kB time=02:58:17.79 bitrate=9336.4kbits/s speed=66.6x    frame=644466 fps=4000 q=-1.0 size=12224000kB time=02:58:55.09 bitrate=9328.2kbits/s speed=66.6x    frame=647390 fps=4005 q=-1.0 size=12264960kB time=02:59:43.78 bitrate=9317.2kbits/s speed=66.7x    frame=650146 fps=4010 q=-1.0 size=12307200kB time=03:00:29.70 bitrate=9309.6kbits/s speed=66.8x    frame=652491 fps=4012 q=-1.0 size=12343552kB time=03:01:08.76 bitrate=9303.6kbits/s speed=66.8x    frame=655080 fps=4016 q=-1.0 size=12384512kB time=03:01:51.90 bitrate=9297.5kbits/s speed=66.9x    frame=657536 fps=4018 q=-1.0 size=12424960kB time=03:02:32.82 bitrate=9293.1kbits/s speed=66.9x    frame=659912 fps=4021 q=-1.0 size=12462848kB time=03:03:12.39 bitrate=9287.8kbits/s speed=  67x    frame=662863 fps=4026 q=-1.0 size=12503808kB time=03:04:01.53 bitrate=9276.9kbits/s speed=67.1x    frame=665229 fps=4029 q=-1.0 size=12540928kB time=03:04:40.98 bitrate=9271.3kbits/s speed=67.1x    frame=667700 fps=4031 q=-1.0 size=12581888kB time=03:05:22.10 bitrate=9267.2kbits/s speed=67.2x    frame=670188 fps=4034 q=-1.0 size=12622848kB time=03:06:03.57 bitrate=9262.8kbits/s speed=67.2x    frame=672320 fps=4035 q=-1.0 size=12662528kB time=03:06:39.10 bitrate=9262.5kbits/s speed=67.2x    frame=674732 fps=4037 q=-1.0 size=12701696kB time=03:07:19.27 bitrate=9257.9kbits/s speed=67.2x    frame=676923 fps=4038 q=-1.0 size=12741376kB time=03:07:55.77 bitrate=9256.8kbits/s speed=67.3x    frame=679478 fps=4041 q=-1.0 size=12778240kB time=03:08:38.34 bitrate=9248.6kbits/s speed=67.3x    frame=682183 fps=4045 q=-1.0 size=12818688kB time=03:09:23.40 bitrate=9241.1kbits/s speed=67.4x    frame=684445 fps=4047 q=-1.0 size=12857344kB time=03:10:01.07 bitrate=9238.4kbits/s speed=67.4x    frame=688121 fps=4057 q=-1.0 size=12891904kB time=03:11:02.33 bitrate=9213.7kbits/s speed=67.6x    frame=692294 fps=4069 q=-1.0 size=12928512kB time=03:12:11.83 bitrate=9184.2kbits/s speed=67.8x    frame=695706 fps=4077 q=-1.0 size=12963072kB time=03:13:08.71 bitrate=9163.5kbits/s speed=67.9x    frame=700307 fps=4092 q=-1.0 size=13000192kB time=03:14:25.35 bitrate=9129.4kbits/s speed=68.2x    frame=704662 fps=4106 q=-1.0 size=13039104kB time=03:15:37.93 bitrate=9100.1kbits/s speed=68.4x    frame=708222 fps=4114 q=-1.0 size=13074944kB time=03:16:37.24 bitrate=9079.2kbits/s speed=68.5x    frame=712368 fps=4127 q=-1.0 size=13111040kB time=03:17:46.32 bitrate=9051.3kbits/s speed=68.7x    frame=715462 fps=4132 q=-1.0 size=13147392kB time=03:18:37.86 bitrate=9037.1kbits/s speed=68.8x    frame=717487 fps=4132 q=-1.0 size=13187840kB time=03:19:11.57 bitrate=9039.4kbits/s speed=68.8x    frame=719564 fps=4132 q=-1.0 size=13227520kB time=03:19:46.19 bitrate=9040.4kbits/s speed=68.8x    frame=721949 fps=4134 q=-1.0 size=13264896kB time=03:20:25.89 bitrate=9036.0kbits/s speed=68.9x    frame=724692 fps=4138 q=-1.0 size=13304064kB time=03:21:11.60 bitrate=9028.4kbits/s speed=68.9x    frame=727447 fps=4142 q=-1.0 size=13345024kB time=03:21:57.52 bitrate=9021.8kbits/s speed=  69x    frame=731126 fps=4151 q=-1.0 size=13379584kB time=03:22:58.80 bitrate=8999.7kbits/s speed=69.1x    frame=732976 fps=4150 q=-1.0 size=13418240kB time=03:23:29.63 bitrate=9002.9kbits/s speed=69.1x    frame=735360 fps=4151 q=-1.0 size=13456896kB time=03:24:09.36 bitrate=8999.6kbits/s speed=69.2x    frame=737309 fps=4151 q=-1.0 size=13495296kB time=03:24:41.79 bitrate=9001.4kbits/s speed=69.1x    frame=739778 fps=4153 q=-1.0 size=13534976kB time=03:25:22.93 bitrate=8997.7kbits/s speed=69.2x    frame=741920 fps=4153 q=-1.0 size=13570048kB time=03:25:58.65 bitrate=8995.0kbits/s speed=69.2x    frame=743764 fps=4152 q=-1.0 size=13606656kB time=03:26:29.36 bitrate=8996.9kbits/s speed=69.2x    frame=747136 fps=4159 q=-1.0 size=13644032kB time=03:27:25.56 bitrate=8980.9kbits/s speed=69.3x    frame=748976 fps=4158 q=-1.0 size=13680128kB time=03:27:56.21 bitrate=8982.5kbits/s speed=69.3x    frame=751362 fps=4159 q=-1.0 size=13720576kB time=03:28:35.93 bitrate=8980.5kbits/s speed=69.3x    frame=754873 fps=4167 q=-1.0 size=13758464kB time=03:29:34.41 bitrate=8963.4kbits/s speed=69.4x    frame=757037 fps=4168 q=-1.0 size=13794816kB time=03:30:10.49 bitrate=8961.4kbits/s speed=69.4x    frame=758941 fps=4167 q=-1.0 size=13833984kB time=03:30:42.21 bitrate=8964.3kbits/s speed=69.4x    frame=761398 fps=4169 q=-1.0 size=13873664kB time=03:31:23.15 bitrate=8960.9kbits/s speed=69.4x    frame=764116 fps=4172 q=-1.0 size=13907712kB time=03:32:08.40 bitrate=8951.0kbits/s speed=69.5x    frame=766814 fps=4176 q=-1.0 size=13946368kB time=03:32:53.37 bitrate=8944.3kbits/s speed=69.6x    frame=769403 fps=4178 q=-1.0 size=13983232kB time=03:33:36.51 bitrate=8937.7kbits/s speed=69.6x    frame=772439 fps=4183 q=-1.0 size=14017280kB time=03:34:27.08 bitrate=8924.3kbits/s speed=69.7x    frame=774543 fps=4184 q=-1.0 size=14054912kB time=03:35:02.09 bitrate=8924.0kbits/s speed=69.7x    frame=777056 fps=4186 q=-1.0 size=14088960kB time=03:35:44.00 bitrate=8916.6kbits/s speed=69.7x    frame=779589 fps=4188 q=-1.0 size=14124032kB time=03:36:26.18 bitrate=8909.8kbits/s speed=69.8x    frame=781850 fps=4189 q=-1.0 size=14160128kB time=03:37:03.86 bitrate=8906.7kbits/s speed=69.8x    frame=783910 fps=4189 q=-1.0 size=14196480kB time=03:37:38.18 bitrate=8906.1kbits/s speed=69.8x    frame=786223 fps=4190 q=-1.0 size=14236160kB time=03:38:16.70 bitrate=8904.7kbits/s speed=69.8x    frame=788589 fps=4191 q=-1.0 size=14275840kB time=03:38:56.15 bitrate=8902.7kbits/s speed=69.8x    frame=790973 fps=4193 q=-1.0 size=14315520kB time=03:39:35.84 bitrate=8900.6kbits/s speed=69.8x    frame=793373 fps=4195 q=-1.0 size=14357248kB time=03:40:15.81 bitrate=8899.5kbits/s speed=69.9x    frame=795432 fps=4194 q=-1.0 size=14394112kB time=03:40:50.13 bitrate=8899.3kbits/s speed=69.9x    frame=798320 fps=4198 q=-1.0 size=14433536kB time=03:41:38.26 bitrate=8891.4kbits/s speed=69.9x    frame=800451 fps=4199 q=-1.0 size=14476288kB time=03:42:13.77 bitrate=8893.9kbits/s speed=69.9x    frame=802184 fps=4197 q=-1.0 size=14512384kB time=03:42:42.65 bitrate=8896.8kbits/s speed=69.9x    frame=804576 fps=4198 q=-1.0 size=14554880kB time=03:43:22.50 bitrate=8896.4kbits/s speed=69.9x    frame=808486 fps=4208 q=-1.0 size=14592768kB time=03:44:27.61 bitrate=8876.4kbits/s speed=70.1x    frame=811023 fps=4210 q=-1.0 size=14629120kB time=03:45:09.86 bitrate=8870.7kbits/s speed=70.1x    frame=813807 fps=4213 q=-1.0 size=14669056kB time=03:45:56.23 bitrate=8864.5kbits/s speed=70.2x    frame=816029 fps=4214 q=-1.0 size=14708736kB time=03:46:33.26 bitrate=8864.2kbits/s speed=70.2x    frame=818596 fps=4216 q=-1.0 size=14746112kB time=03:47:16.06 bitrate=8858.9kbits/s speed=70.2x    frame=820854 fps=4217 q=-1.0 size=14785792kB time=03:47:53.67 bitrate=8858.3kbits/s speed=70.2x    frame=822834 fps=4216 q=-1.0 size=14823680kB time=03:48:26.66 bitrate=8859.6kbits/s speed=70.2x    frame=825844 fps=4221 q=-1.0 size=14863616kB time=03:49:16.79 bitrate=8851.1kbits/s speed=70.3x    frame=828451 fps=4224 q=-1.0 size=14905088kB time=03:50:00.24 bitrate=8847.9kbits/s speed=70.4x    frame=830470 fps=4223 q=-1.0 size=14944000kB time=03:50:33.85 bitrate=8849.4kbits/s speed=70.3x    frame=832537 fps=4223 q=-1.0 size=14985216kB time=03:51:08.32 bitrate=8851.7kbits/s speed=70.3x    frame=834690 fps=4223 q=-1.0 size=15022592kB time=03:51:44.20 bitrate=8850.9kbits/s speed=70.3x    frame=836596 fps=4222 q=-1.0 size=15061760kB time=03:52:15.94 bitrate=8853.8kbits/s speed=70.3x    frame=838842 fps=4223 q=-1.0 size=15102976kB time=03:52:53.38 bitrate=8854.2kbits/s speed=70.3x    frame=840823 fps=4222 q=-1.0 size=15139328kB time=03:53:26.39 bitrate=8854.6kbits/s speed=70.3x    frame=842868 fps=4222 q=-1.0 size=15178496kB time=03:54:00.43 bitrate=8856.0kbits/s speed=70.3x    frame=845028 fps=4222 q=-1.0 size=15219200kB time=03:54:36.46 bitrate=8857.0kbits/s speed=70.3x    frame=846884 fps=4221 q=-1.0 size=15255552kB time=03:55:07.39 bitrate=8858.7kbits/s speed=70.3x    frame=848995 fps=4221 q=-1.0 size=15295488kB time=03:55:42.52 bitrate=8859.8kbits/s speed=70.3x    frame=851308 fps=4222 q=-1.0 size=15336448kB time=03:56:21.07 bitrate=8859.4kbits/s speed=70.3x    frame=853287 fps=4221 q=-1.0 size=15373568kB time=03:56:54.05 bitrate=8860.3kbits/s speed=70.3x    frame=855231 fps=4220 q=-1.0 size=15414016kB time=03:57:26.45 bitrate=8863.4kbits/s speed=70.3x    frame=857266 fps=4220 q=-1.0 size=15452416kB time=03:58:00.36 bitrate=8864.4kbits/s speed=70.3x    frame=859490 fps=4220 q=-1.0 size=15492608kB time=03:58:37.39 bitrate=8864.4kbits/s speed=70.3x    frame=861719 fps=4221 q=-1.0 size=15532544kB time=03:59:14.56 bitrate=8864.3kbits/s speed=70.3x    frame=863925 fps=4221 q=-1.0 size=15570432kB time=03:59:51.30 bitrate=8863.2kbits/s speed=70.3x    frame=865863 fps=4220 q=-1.0 size=15609856kB time=04:00:23.61 bitrate=8865.7kbits/s speed=70.3x    frame=869565 fps=4228 q=-1.0 size=15646976kB time=04:01:25.28 bitrate=8849.0kbits/s speed=70.4x    frame=872287 fps=4231 q=-1.0 size=15680256kB time=04:02:10.65 bitrate=8840.1kbits/s speed=70.5x    frame=875787 fps=4238 q=-1.0 size=15720960kB time=04:03:08.97 bitrate=8827.6kbits/s speed=70.6x    frame=878486 fps=4241 q=-1.0 size=15753472kB time=04:03:53.95 bitrate=8818.7kbits/s speed=70.6x    frame=880722 fps=4241 q=-1.0 size=15789568kB time=04:04:31.21 bitrate=8816.5kbits/s speed=70.6x    frame=884579 fps=4249 q=-1.0 size=15828224kB time=04:05:35.47 bitrate=8799.5kbits/s speed=70.8x    frame=887135 fps=4252 q=-1.0 size=15863808kB time=04:06:18.05 bitrate=8793.9kbits/s speed=70.8x    frame=890499 fps=4257 q=-1.0 size=15901696kB time=04:07:14.08 bitrate=8781.6kbits/s speed=70.9x    frame=892515 fps=4257 q=-1.0 size=15940608kB time=04:07:47.67 bitrate=8783.2kbits/s speed=70.9x    frame=894198 fps=4255 q=-1.0 size=15975424kB time=04:08:15.71 bitrate=8785.8kbits/s speed=70.9x    frame=896281 fps=4255 q=-1.0 size=16010752kB time=04:08:50.41 bitrate=8784.8kbits/s speed=70.9x    frame=898986 fps=4257 q=-1.0 size=16048640kB time=04:09:35.46 bitrate=8779.1kbits/s speed=70.9x    frame=901248 fps=4258 q=-1.0 size=16089088kB time=04:10:13.16 bitrate=8779.1kbits/s speed=70.9x    frame=903206 fps=4257 q=-1.0 size=16126720kB time=04:10:45.77 bitrate=8780.5kbits/s speed=70.9x    frame=906479 fps=4262 q=-1.0 size=16162304kB time=04:11:40.25 bitrate=8768.2kbits/s speed=  71x    frame=908731 fps=4263 q=-1.0 size=16196096kB time=04:12:17.80 bitrate=8764.7kbits/s speed=  71x    frame=911142 fps=4264 q=-1.0 size=16235264kB time=04:12:57.94 bitrate=8762.7kbits/s speed=  71x    frame=913378 fps=4265 q=-1.0 size=16274944kB time=04:13:35.17 bitrate=8762.6kbits/s speed=  71x    frame=915686 fps=4266 q=-1.0 size=16315648kB time=04:14:13.61 bitrate=8762.4kbits/s speed=71.1x    frame=917922 fps=4266 q=-1.0 size=16355584kB time=04:14:50.87 bitrate=8762.4kbits/s speed=71.1x    frame=920154 fps=4266 q=-1.0 size=16395520kB time=04:15:28.03 bitrate=8762.5kbits/s speed=71.1x    frame=922150 fps=4266 q=-1.0 size=16430336kB time=04:16:01.29 bitrate=8762.1kbits/s speed=71.1x    frame=924075 fps=4265 q=-1.0 size=16464640kB time=04:16:33.34 bitrate=8762.1kbits/s speed=  71x    frame=926206 fps=4265 q=-1.0 size=16500736kB time=04:17:08.88 bitrate=8761.1kbits/s speed=  71x    frame=928411 fps=4265 q=-1.0 size=16537088kB time=04:17:45.61 bitrate=8759.6kbits/s speed=  71x    frame=930512 fps=4265 q=-1.0 size=16573696kB time=04:18:20.62 bitrate=8759.1kbits/s speed=  71x    frame=932582 fps=4265 q=-1.0 size=16610304kB time=04:18:55.09 bitrate=8759.0kbits/s speed=  71x    frame=935058 fps=4266 q=-1.0 size=16645632kB time=04:19:36.33 bitrate=8754.4kbits/s speed=71.1x    frame=937078 fps=4266 q=-1.0 size=16683776kB time=04:20:09.98 bitrate=8755.5kbits/s speed=71.1x    frame=939773 fps=4268 q=-1.0 size=16717312kB time=04:20:54.87 bitrate=8748.0kbits/s speed=71.1x    frame=942615 fps=4271 q=-1.0 size=16757760kB time=04:21:42.24 bitrate=8742.7kbits/s speed=71.2x    frame=944607 fps=4271 q=-1.0 size=16796416kB time=04:22:15.42 bitrate=8744.4kbits/s speed=71.1x    frame=946841 fps=4271 q=-1.0 size=16829696kB time=04:22:52.59 bitrate=8741.0kbits/s speed=71.2x    frame=948753 fps=4270 q=-1.0 size=16863744kB time=04:23:24.44 bitrate=8741.1kbits/s speed=71.1x    frame=951794 fps=4274 q=-1.0 size=16897024kB time=04:24:15.12 bitrate=8730.3kbits/s speed=71.2x    frame=954993 fps=4279 q=-1.0 size=16930304kB time=04:25:08.43 bitrate=8718.2kbits/s speed=71.3x    frame=957538 fps=4281 q=-1.0 size=16963328kB time=04:25:50.81 bitrate=8712.0kbits/s speed=71.3x    frame=960885 fps=4286 q=-1.0 size=17001472kB time=04:26:46.58 bitrate=8701.2kbits/s speed=71.4x    frame=963808 fps=4290 q=-1.0 size=17040128kB time=04:27:35.29 bitrate=8694.5kbits/s speed=71.5x    frame=966256 fps=4291 q=-1.0 size=17075712kB time=04:28:16.06 bitrate=8690.6kbits/s speed=71.5x    frame=969385 fps=4295 q=-1.0 size=17116672kB time=04:29:08.21 bitrate=8683.3kbits/s speed=71.6x    frame=971287 fps=4294 q=-1.0 size=17156352kB time=04:29:39.91 bitrate=8686.4kbits/s speed=71.5x    frame=973255 fps=4294 q=-1.0 size=17193728kB time=04:30:12.68 bitrate=8687.7kbits/s speed=71.5x    frame=975349 fps=4293 q=-1.0 size=17234688kB time=04:30:47.55 bitrate=8689.7kbits/s speed=71.5x    frame=977402 fps=4293 q=-1.0 size=17273600kB time=04:31:21.77 bitrate=8691.0kbits/s speed=71.5x    frame=979514 fps=4293 q=-1.0 size=17313536kB time=04:31:56.96 bitrate=8692.3kbits/s speed=71.5x    frame=981623 fps=4293 q=-1.0 size=17355520kB time=04:32:32.10 bitrate=8694.7kbits/s speed=71.5x    frame=984247 fps=4295 q=-1.0 size=17390080kB time=04:33:15.82 bitrate=8688.8kbits/s speed=71.5x    frame=986539 fps=4295 q=-1.0 size=17426176kB time=04:33:53.96 bitrate=8686.6kbits/s speed=71.6x    frame=988717 fps=4295 q=-1.0 size=17462784kB time=04:34:30.29 bitrate=8685.6kbits/s speed=71.6x    frame=991719 fps=4299 q=-1.0 size=17501184kB time=04:35:20.26 bitrate=8678.4kbits/s speed=71.6x    frame=994196 fps=4300 q=-1.0 size=17542400kB time=04:36:01.52 bitrate=8677.2kbits/s speed=71.6x    frame=996884 fps=4303 q=-1.0 size=17582080kB time=04:36:46.30 bitrate=8673.4kbits/s speed=71.7x    frame=999002 fps=4303 q=-1.0 size=17616896kB time=04:37:21.60 bitrate=8672.1kbits/s speed=71.7x    frame=1000911 fps=4302 q=-1.0 size=17651456kB time=04:37:53.39 bitrate=8672.5kbits/s speed=71.7x    frame=1003358 fps=4303 q=-1.0 size=17688320kB time=04:38:34.17 bitrate=8669.4kbits/s speed=71.7x    frame=1005517 fps=4303 q=-1.0 size=17724672kB time=04:39:10.14 bitrate=8668.6kbits/s speed=71.7x    frame=1007411 fps=4302 q=-1.0 size=17760256kB time=04:39:41.69 bitrate=8669.7kbits/s speed=71.7x    frame=1009946 fps=4303 q=-1.0 size=17795328kB time=04:40:23.92 bitrate=8665.0kbits/s speed=71.7x    frame=1012418 fps=4305 q=-1.0 size=17833728kB time=04:41:05.08 bitrate=8662.5kbits/s speed=71.7x    frame=1014717 fps=4305 q=-1.0 size=17868544kB time=04:41:43.39 bitrate=8659.7kbits/s speed=71.7x    frame=1016687 fps=4305 q=-1.0 size=17903360kB time=04:42:16.21 bitrate=8659.8kbits/s speed=71.7x    frame=1018772 fps=4304 q=-1.0 size=17942528kB time=04:42:50.94 bitrate=8661.0kbits/s speed=71.7x    frame=1020597 fps=4303 q=-1.0 size=17978112kB time=04:43:21.37 bitrate=8662.6kbits/s speed=71.7x    frame=1022759 fps=4303 q=-1.0 size=18017792kB time=04:43:57.40 bitrate=8663.4kbits/s speed=71.7x    frame=1024936 fps=4303 q=-1.0 size=18056448kB time=04:44:33.68 bitrate=8663.5kbits/s speed=71.7x    frame=1026942 fps=4302 q=-1.0 size=18093312kB time=04:45:07.10 bitrate=8664.3kbits/s speed=71.7x    frame=1029004 fps=4302 q=-1.0 size=18132992kB time=04:45:41.43 bitrate=8665.9kbits/s speed=71.7x    frame=1031002 fps=4301 q=-1.0 size=18173440kB time=04:46:14.75 bitrate=8668.4kbits/s speed=71.7x    frame=1032950 fps=4301 q=-1.0 size=18208512kB time=04:46:47.21 bitrate=8668.7kbits/s speed=71.6x    frame=1035037 fps=4300 q=-1.0 size=18250496kB time=04:47:21.96 bitrate=8671.2kbits/s speed=71.6x    frame=1038441 fps=4305 q=-1.0 size=18287872kB time=04:48:18.69 bitrate=8660.4kbits/s speed=71.7x    frame=1040559 fps=4305 q=-1.0 size=18327808kB time=04:48:53.96 bitrate=8661.7kbits/s speed=71.7x    frame=1043026 fps=4307 q=-1.0 size=18368256kB time=04:49:35.06 bitrate=8660.3kbits/s speed=71.7x    frame=1045187 fps=4307 q=-1.0 size=18408448kB time=04:50:11.04 bitrate=8661.3kbits/s speed=71.7x    frame=1048190 fps=4310 q=-1.0 size=18447360kB time=04:51:01.07 bitrate=8654.7kbits/s speed=71.8x    frame=1051008 fps=4313 q=-1.0 size=18488320kB time=04:51:48.05 bitrate=8650.7kbits/s speed=71.8x    frame=1052859 fps=4312 q=-1.0 size=18524416kB time=04:52:18.88 bitrate=8652.3kbits/s speed=71.8x    frame=1055171 fps=4312 q=-1.0 size=18568192kB time=04:52:57.37 bitrate=8653.8kbits/s speed=71.8x    frame=1057071 fps=4311 q=-1.0 size=18606592kB time=04:53:29.02 bitrate=8656.1kbits/s speed=71.8x    frame=1060452 fps=4316 q=-1.0 size=18649088kB time=04:54:25.37 bitrate=8648.2kbits/s speed=71.9x    frame=1063188 fps=4318 q=-1.0 size=18690560kB time=04:55:10.92 bitrate=8645.1kbits/s speed=71.9x    frame=1065762 fps=4320 q=-1.0 size=18730496kB time=04:55:53.80 bitrate=8642.7kbits/s speed=  72x    frame=1068537 fps=4323 q=-1.0 size=18771968kB time=04:56:40.04 bitrate=8639.3kbits/s speed=  72x    frame=1071613 fps=4326 q=-1.0 size=18813440kB time=04:57:31.27 bitrate=8633.5kbits/s speed=72.1x    frame=1073712 fps=4326 q=-1.0 size=18847232kB time=04:58:06.25 bitrate=8632.1kbits/s speed=72.1x    frame=1075919 fps=4326 q=-1.0 size=18887680kB time=04:58:43.01 bitrate=8632.9kbits/s speed=72.1x    frame=1078045 fps=4326 q=-1.0 size=18928640kB time=04:59:18.44 bitrate=8634.6kbits/s speed=72.1x    frame=1080066 fps=4325 q=-1.0 size=18966528kB time=04:59:52.12 bitrate=8635.7kbits/s speed=72.1x    frame=1082935 fps=4328 q=-1.0 size=19007232kB time=05:00:39.96 bitrate=8631.2kbits/s speed=72.1x    frame=1085140 fps=4328 q=-1.0 size=19048960kB time=05:01:16.66 bitrate=8632.6kbits/s speed=72.1x    frame=1087607 fps=4330 q=-1.0 size=19084800kB time=05:01:57.79 bitrate=8629.2kbits/s speed=72.1x    frame=1090310 fps=4332 q=-1.0 size=19121152kB time=05:02:42.79 bitrate=8624.2kbits/s speed=72.2x    frame=1092514 fps=4332 q=-1.0 size=19161088kB time=05:03:19.52 bitrate=8624.8kbits/s speed=72.2x    frame=1094662 fps=4332 q=-1.0 size=19200512kB time=05:03:55.28 bitrate=8625.6kbits/s speed=72.2x    frame=1096825 fps=4332 q=-1.0 size=19239168kB time=05:04:31.32 bitrate=8625.9kbits/s speed=72.2x    frame=1099037 fps=4332 q=-1.0 size=19279872kB time=05:05:08.19 bitrate=8626.8kbits/s speed=72.2x    frame=1101050 fps=4331 q=-1.0 size=19316480kB time=05:05:41.73 bitrate=8627.4kbits/s speed=72.2x    frame=1103110 fps=4331 q=-1.0 size=19353088kB time=05:06:16.02 bitrate=8627.6kbits/s speed=72.1x    frame=1105204 fps=4331 q=-1.0 size=19388928kB time=05:06:50.89 bitrate=8627.2kbits/s speed=72.1x    frame=1107185 fps=4330 q=-1.0 size=19425024kB time=05:07:23.93 bitrate=8627.8kbits/s speed=72.1x    frame=1109248 fps=4329 q=-1.0 size=19461632kB time=05:07:58.28 bitrate=8628.0kbits/s speed=72.1x    frame=1111225 fps=4329 q=-1.0 size=19496960kB time=05:08:31.19 bitrate=8628.2kbits/s speed=72.1x    frame=1113748 fps=4330 q=-1.0 size=19531520kB time=05:09:13.22 bitrate=8624.0kbits/s speed=72.1x    frame=1115798 fps=4330 q=-1.0 size=19569664kB time=05:09:47.39 bitrate=8624.9kbits/s speed=72.1x    frame=1119103 fps=4334 q=-1.0 size=19605504kB time=05:10:42.45 bitrate=8615.2kbits/s speed=72.2x    frame=1122581 fps=4339 q=-1.0 size=19644416kB time=05:11:40.37 bitrate=8605.6kbits/s speed=72.3x    frame=1125012 fps=4340 q=-1.0 size=19682560kB time=05:12:20.86 bitrate=8603.6kbits/s speed=72.3x    frame=1127814 fps=4343 q=-1.0 size=19720192kB time=05:13:07.54 bitrate=8598.7kbits/s speed=72.3x    frame=1131152 fps=4347 q=-1.0 size=19759872kB time=05:14:03.16 bitrate=8590.5kbits/s speed=72.4x    frame=1136207 fps=4358 q=-1.0 size=19799040kB time=05:15:27.27 bitrate=8569.3kbits/s speed=72.6x    frame=1140538 fps=4366 q=-1.0 size=19833088kB time=05:16:39.33 bitrate=8551.5kbits/s speed=72.7x    frame=1145538 fps=4377 q=-1.0 size=19872512kB time=05:18:02.55 bitrate=8531.1kbits/s speed=72.9x    frame=1150208 fps=4387 q=-1.0 size=19908352kB time=05:19:20.33 bitrate=8511.8kbits/s speed=73.1x    frame=1155497 fps=4398 q=-1.0 size=19945472kB time=05:20:48.37 bitrate=8488.7kbits/s speed=73.3x    frame=1160637 fps=4409 q=-1.0 size=19983872kB time=05:22:13.95 bitrate=8467.4kbits/s speed=73.5x    frame=1162412 fps=4408 q=-1.0 size=20020736kB time=05:22:43.54 bitrate=8470.0kbits/s speed=73.4x    frame=1164482 fps=4407 q=-1.0 size=20061696kB time=05:23:18.00 bitrate=8472.3kbits/s speed=73.4x    frame=1166834 fps=4408 q=-1.0 size=20103168kB time=05:23:57.21 bitrate=8472.7kbits/s speed=73.4x    frame=1168547 fps=4406 q=-1.0 size=20138496kB time=05:24:25.73 bitrate=8475.1kbits/s speed=73.4x    frame=1170554 fps=4405 q=-1.0 size=20180224kB time=05:24:59.15 bitrate=8478.1kbits/s speed=73.4x    frame=1172355 fps=4404 q=-1.0 size=20217856kB time=05:25:29.14 bitrate=8480.9kbits/s speed=73.4x    frame=1174063 fps=4402 q=-1.0 size=20253184kB time=05:25:57.56 bitrate=8483.4kbits/s speed=73.3x    frame=1175687 fps=4400 q=-1.0 size=20286976kB time=05:26:24.63 bitrate=8485.8kbits/s speed=73.3x    frame=1177471 fps=4398 q=-1.0 size=20324096kB time=05:26:54.36 bitrate=8488.4kbits/s speed=73.3x    frame=1179426 fps=4397 q=-1.0 size=20364544kB time=05:27:26.90 bitrate=8491.2kbits/s speed=73.2x    frame=1181437 fps=4397 q=-1.0 size=20406528kB time=05:28:00.36 bitrate=8494.3kbits/s speed=73.2x    frame=1183810 fps=4397 q=-1.0 size=20450304kB time=05:28:39.91 bitrate=8495.4kbits/s speed=73.2x    frame=1186269 fps=4398 q=-1.0 size=20493568kB time=05:29:20.83 bitrate=8495.8kbits/s speed=73.3x    frame=1188080 fps=4397 q=-1.0 size=20531200kB time=05:29:51.02 bitrate=8498.4kbits/s speed=73.2x    frame=1189804 fps=4395 q=-1.0 size=20567296kB time=05:30:19.74 bitrate=8501.0kbits/s speed=73.2x    frame=1191689 fps=4394 q=-1.0 size=20606464kB time=05:30:51.15 bitrate=8503.7kbits/s speed=73.2x    frame=1193428 fps=4392 q=-1.0 size=20642304kB time=05:31:20.10 bitrate=8506.1kbits/s speed=73.2x    frame=1195245 fps=4391 q=-1.0 size=20680192kB time=05:31:50.37 bitrate=8508.7kbits/s speed=73.1x    frame=1197192 fps=4390 q=-1.0 size=20720640kB time=05:32:22.80 bitrate=8511.5kbits/s speed=73.1x    frame=1198878 fps=4388 q=-1.0 size=20755712kB time=05:32:50.88 bitrate=8513.9kbits/s speed=73.1x    frame=1200839 fps=4387 q=-1.0 size=20796416kB time=05:33:23.53 bitrate=8516.7kbits/s speed=73.1x    frame=1202790 fps=4386 q=-1.0 size=20837120kB time=05:33:56.00 bitrate=8519.5kbits/s speed=73.1x    frame=1204541 fps=4385 q=-1.0 size=20873472kB time=05:34:25.17 bitrate=8522.0kbits/s speed=  73x    frame=1206032 fps=4382 q=-1.0 size=20904448kB time=05:34:50.03 bitrate=8524.1kbits/s speed=  73x    frame=1207871 fps=4381 q=-1.0 size=20942848kB time=05:35:20.66 bitrate=8526.7kbits/s speed=  73x    frame=1209830 fps=4380 q=-1.0 size=20983296kB time=05:35:53.26 bitrate=8529.4kbits/s speed=  73x    frame=1211798 fps=4379 q=-1.0 size=21024256kB time=05:36:26.06 bitrate=8532.2kbits/s speed=72.9x    frame=1213759 fps=4378 q=-1.0 size=21065216kB time=05:36:58.72 bitrate=8535.0kbits/s speed=72.9x    frame=1215565 fps=4377 q=-1.0 size=21101056kB time=05:37:28.82 bitrate=8536.8kbits/s speed=72.9x    frame=1217662 fps=4377 q=-1.0 size=21141248kB time=05:38:03.75 bitrate=8538.3kbits/s speed=72.9x    frame=1220294 fps=4378 q=-1.0 size=21181440kB time=05:38:47.55 bitrate=8536.1kbits/s speed=72.9x    frame=1222013 fps=4376 q=-1.0 size=21216768kB time=05:39:16.19 bitrate=8538.3kbits/s speed=72.9x    frame=1223816 fps=4375 q=-1.0 size=21254656kB time=05:39:46.22 bitrate=8541.0kbits/s speed=72.9x    frame=1225723 fps=4374 q=-1.0 size=21294080kB time=05:40:17.98 bitrate=8543.5kbits/s speed=72.9x    frame=1227462 fps=4372 q=-1.0 size=21329920kB time=05:40:46.93 bitrate=8545.8kbits/s speed=72.8x    frame=1229195 fps=4371 q=-1.0 size=21366016kB time=05:41:15.80 bitrate=8548.2kbits/s speed=72.8x    frame=1230823 fps=4369 q=-1.0 size=21400064kB time=05:41:42.91 bitrate=8550.5kbits/s speed=72.8x    frame=1232438 fps=4367 q=-1.0 size=21433600kB time=05:42:09.80 bitrate=8552.6kbits/s speed=72.7x    frame=1234101 fps=4365 q=-1.0 size=21468160kB time=05:42:37.47 bitrate=8554.9kbits/s speed=72.7x    frame=1235701 fps=4363 q=-1.0 size=21501184kB time=05:43:04.10 bitrate=8557.0kbits/s speed=72.7x    frame=1237590 fps=4362 q=-1.0 size=21540352kB time=05:43:35.58 bitrate=8559.5kbits/s speed=72.7x    frame=1239494 fps=4361 q=-1.0 size=21580288kB time=05:44:07.28 bitrate=8562.2kbits/s speed=72.6x    frame=1241369 fps=4360 q=-1.0 size=21619200kB time=05:44:38.54 bitrate=8564.6kbits/s speed=72.6x    frame=1243186 fps=4359 q=-1.0 size=21656832kB time=05:45:08.81 bitrate=8567.0kbits/s speed=72.6x    frame=1245021 fps=4357 q=-1.0 size=21694720kB time=05:45:39.36 bitrate=8569.4kbits/s speed=72.6x    frame=1246872 fps=4356 q=-1.0 size=21733376kB time=05:46:10.19 bitrate=8571.9kbits/s speed=72.6x    frame=1248726 fps=4355 q=-1.0 size=21771776kB time=05:46:41.07 bitrate=8574.3kbits/s speed=72.5x    frame=1250829 fps=4355 q=-1.0 size=21809920kB time=05:47:16.08 bitrate=8574.9kbits/s speed=72.5x    frame=1252657 fps=4354 q=-1.0 size=21847808kB time=05:47:46.53 bitrate=8577.2kbits/s speed=72.5x    frame=1254909 fps=4354 q=-1.0 size=21887744kB time=05:48:24.01 bitrate=8577.5kbits/s speed=72.5x    frame=1256523 fps=4352 q=-1.0 size=21921024kB time=05:48:50.91 bitrate=8579.5kbits/s speed=72.5x    frame=1258411 fps=4351 q=-1.0 size=21960448kB time=05:49:22.35 bitrate=8582.1kbits/s speed=72.5x    frame=1260201 fps=4350 q=-1.0 size=21997568kB time=05:49:52.19 bitrate=8584.3kbits/s speed=72.5x    frame=1261812 fps=4348 q=-1.0 size=22031104kB time=05:50:19.00 bitrate=8586.5kbits/s speed=72.4x    frame=1263746 fps=4347 q=-1.0 size=22071296kB time=05:50:51.25 bitrate=8588.9kbits/s speed=72.4x    frame=1265476 fps=4345 q=-1.0 size=22107392kB time=05:51:20.08 bitrate=8591.2kbits/s speed=72.4x    frame=1267206 fps=4344 q=-1.0 size=22143232kB time=05:51:48.88 bitrate=8593.4kbits/s speed=72.4x    frame=1269039 fps=4343 q=-1.0 size=22181376kB time=05:52:19.41 bitrate=8595.8kbits/s speed=72.3x    frame=1270717 fps=4341 q=-1.0 size=22216192kB time=05:52:47.34 bitrate=8597.9kbits/s speed=72.3x    frame=1272615 fps=4340 q=-1.0 size=22255616kB time=05:53:18.96 bitrate=8600.3kbits/s speed=72.3x    frame=1274487 fps=4339 q=-1.0 size=22294528kB time=05:53:50.17 bitrate=8602.7kbits/s speed=72.3x    frame=1276151 fps=4337 q=-1.0 size=22329088kB time=05:54:17.88 bitrate=8604.8kbits/s speed=72.2x    frame=1278041 fps=4336 q=-1.0 size=22368512kB time=05:54:49.34 bitrate=8607.3kbits/s speed=72.2x    frame=1279889 fps=4335 q=-1.0 size=22406656kB time=05:55:20.12 bitrate=8609.5kbits/s speed=72.2x    frame=1281616 fps=4334 q=-1.0 size=22442752kB time=05:55:48.90 bitrate=8611.7kbits/s speed=72.2x    frame=1283550 fps=4333 q=-1.0 size=22482944kB time=05:56:21.13 bitrate=8614.2kbits/s speed=72.2x    frame=1285329 fps=4332 q=-1.0 size=22519808kB time=05:56:50.77 bitrate=8616.3kbits/s speed=72.2x    frame=1287442 fps=4331 q=-1.0 size=22557440kB time=05:57:25.98 bitrate=8616.6kbits/s speed=72.2x    frame=1289713 fps=4332 q=-1.0 size=22597376kB time=05:58:03.79 bitrate=8616.6kbits/s speed=72.2x    frame=1291382 fps=4330 q=-1.0 size=22631680kB time=05:58:31.60 bitrate=8618.5kbits/s speed=72.1x    frame=1293082 fps=4328 q=-1.0 size=22667008kB time=05:58:59.90 bitrate=8620.7kbits/s speed=72.1x    frame=1294774 fps=4327 q=-1.0 size=22702336kB time=05:59:28.06 bitrate=8622.8kbits/s speed=72.1x    frame=1296398 fps=4325 q=-1.0 size=22735872kB time=05:59:55.11 bitrate=8624.7kbits/s speed=  72x    frame=1298316 fps=4324 q=-1.0 size=22775808kB time=06:00:27.04 bitrate=8627.1kbits/s speed=  72x    frame=1299990 fps=4323 q=-1.0 size=22810368kB time=06:00:54.95 bitrate=8629.1kbits/s speed=  72x    frame=1301661 fps=4321 q=-1.0 size=22845184kB time=06:01:22.75 bitrate=8631.2kbits/s speed=  72x    frame=1303382 fps=4320 q=-1.0 size=22881280kB time=06:01:51.44 bitrate=8633.4kbits/s speed=  72x    frame=1305041 fps=4318 q=-1.0 size=22915328kB time=06:02:19.08 bitrate=8635.2kbits/s speed=71.9x    frame=1306769 fps=4316 q=-1.0 size=22951424kB time=06:02:47.86 bitrate=8637.4kbits/s speed=71.9x    frame=1308510 fps=4315 q=-1.0 size=22987520kB time=06:03:16.86 bitrate=8639.5kbits/s speed=71.9x    frame=1310242 fps=4314 q=-1.0 size=23023616kB time=06:03:45.68 bitrate=8641.6kbits/s speed=71.9x    frame=1312315 fps=4313 q=-1.0 size=23059456kB time=06:04:20.22 bitrate=8641.4kbits/s speed=71.9x    frame=1314281 fps=4313 q=-1.0 size=23097088kB time=06:04:52.96 bitrate=8642.6kbits/s speed=71.8x    frame=1316432 fps=4313 q=-1.0 size=23133440kB time=06:05:28.76 bitrate=8642.0kbits/s speed=71.8x    frame=1318343 fps=4312 q=-1.0 size=23173120kB time=06:06:00.60 bitrate=8644.3kbits/s speed=71.8x    frame=1320167 fps=4311 q=-1.0 size=23210752kB time=06:06:30.97 bitrate=8646.4kbits/s speed=71.8x    frame=1322041 fps=4310 q=-1.0 size=23249664kB time=06:07:02.19 bitrate=8648.6kbits/s speed=71.8x    frame=1324071 fps=4310 q=-1.0 size=23292160kB time=06:07:35.99 bitrate=8651.1kbits/s speed=71.8x    frame=1325910 fps=4308 q=-1.0 size=23329792kB time=06:08:06.64 bitrate=8653.1kbits/s speed=71.8x    frame=1327951 fps=4308 q=-1.0 size=23372288kB time=06:08:40.61 bitrate=8655.5kbits/s speed=71.8x    frame=1329874 fps=4307 q=-1.0 size=23412224kB time=06:09:12.67 bitrate=8657.8kbits/s speed=71.8x    frame=1331766 fps=4307 q=-1.0 size=23451392kB time=06:09:44.18 bitrate=8659.9kbits/s speed=71.7x    frame=1333516 fps=4305 q=-1.0 size=23487744kB time=06:10:13.30 bitrate=8662.0kbits/s speed=71.7x    frame=1335360 fps=4304 q=-1.0 size=23526144kB time=06:10:44.03 bitrate=8664.2kbits/s speed=71.7x    frame=1337355 fps=4304 q=-1.0 size=23567616kB time=06:11:17.22 bitrate=8666.5kbits/s speed=71.7x    frame=1339189 fps=4303 q=-1.0 size=23606016kB time=06:11:47.77 bitrate=8668.7kbits/s speed=71.7x    frame=1341149 fps=4302 q=-1.0 size=23646720kB time=06:12:20.42 bitrate=8671.0kbits/s speed=71.7x    frame=1343014 fps=4301 q=-1.0 size=23685120kB time=06:12:51.49 bitrate=8673.0kbits/s speed=71.6x    frame=1345047 fps=4301 q=-1.0 size=23723520kB time=06:13:25.36 bitrate=8674.0kbits/s speed=71.6x    frame=1347183 fps=4301 q=-1.0 size=23762688kB time=06:14:00.89 bitrate=8674.5kbits/s speed=71.6x    frame=1349159 fps=4300 q=-1.0 size=23801344kB time=06:14:33.82 bitrate=8675.9kbits/s speed=71.6x    frame=1350994 fps=4299 q=-1.0 size=23839232kB time=06:15:04.40 bitrate=8677.9kbits/s speed=71.6x    frame=1352978 fps=4299 q=-1.0 size=23880448kB time=06:15:37.44 bitrate=8680.2kbits/s speed=71.6x    frame=1354709 fps=4297 q=-1.0 size=23916544kB time=06:16:06.26 bitrate=8682.2kbits/s speed=71.6x    frame=1356594 fps=4296 q=-1.0 size=23955712kB time=06:16:37.66 bitrate=8684.3kbits/s speed=71.6x    frame=1358507 fps=4296 q=-1.0 size=23995392kB time=06:17:09.50 bitrate=8686.5kbits/s speed=71.6x    frame=1360175 fps=4294 q=-1.0 size=24029952kB time=06:17:37.29 bitrate=8688.3kbits/s speed=71.5x    frame=1362137 fps=4294 q=-1.0 size=24070656kB time=06:18:09.93 bitrate=8690.5kbits/s speed=71.5x    frame=1364018 fps=4293 q=-1.0 size=24109824kB time=06:18:41.30 bitrate=8692.6kbits/s speed=71.5x    frame=1365894 fps=4292 q=-1.0 size=24148736kB time=06:19:12.50 bitrate=8694.7kbits/s speed=71.5x    frame=1367856 fps=4291 q=-1.0 size=24189696kB time=06:19:45.17 bitrate=8697.0kbits/s speed=71.5x    frame=1369708 fps=4290 q=-1.0 size=24228352kB time=06:20:16.04 bitrate=8699.1kbits/s speed=71.5x    frame=1371698 fps=4290 q=-1.0 size=24269568kB time=06:20:49.21 bitrate=8701.2kbits/s speed=71.5x    frame=1373565 fps=4289 q=-1.0 size=24308224kB time=06:21:20.28 bitrate=8703.3kbits/s speed=71.4x    frame=1375255 fps=4288 q=-1.0 size=24343296kB time=06:21:48.47 bitrate=8705.1kbits/s speed=71.4x    frame=1377127 fps=4287 q=-1.0 size=24382208kB time=06:22:19.64 bitrate=8707.2kbits/s speed=71.4x    frame=1379284 fps=4287 q=-1.0 size=24423424kB time=06:22:55.56 bitrate=8708.2kbits/s speed=71.4x    frame=1381047 fps=4286 q=-1.0 size=24459520kB time=06:23:24.94 bitrate=8710.0kbits/s speed=71.4x    frame=1383415 fps=4286 q=-1.0 size=24500480kB time=06:24:04.36 bitrate=8709.6kbits/s speed=71.4x    frame=1385227 fps=4285 q=-1.0 size=24537856kB time=06:24:34.52 bitrate=8711.5kbits/s speed=71.4x    frame=1387014 fps=4284 q=-1.0 size=24574976kB time=06:25:04.26 bitrate=8713.5kbits/s speed=71.4x    frame=1388985 fps=4284 q=-1.0 size=24615936kB time=06:25:37.10 bitrate=8715.6kbits/s speed=71.4x    frame=1390738 fps=4282 q=-1.0 size=24652544kB time=06:26:06.30 bitrate=8717.6kbits/s speed=71.3x    frame=1392550 fps=4281 q=-1.0 size=24689920kB time=06:26:36.46 bitrate=8719.4kbits/s speed=71.3x    frame=1394493 fps=4281 q=-1.0 size=24730368kB time=06:27:08.81 bitrate=8721.5kbits/s speed=71.3x    frame=1396377 fps=4280 q=-1.0 size=24769536kB time=06:27:40.20 bitrate=8723.6kbits/s speed=71.3x    frame=1398361 fps=4280 q=-1.0 size=24810752kB time=06:28:13.27 bitrate=8725.7kbits/s speed=71.3x    frame=1400015 fps=4278 q=-1.0 size=24845056kB time=06:28:40.81 bitrate=8727.4kbits/s speed=71.3x    frame=1401982 fps=4278 q=-1.0 size=24886016kB time=06:29:13.56 bitrate=8729.6kbits/s speed=71.3x    frame=1403925 fps=4277 q=-1.0 size=24926208kB time=06:29:45.95 bitrate=8731.5kbits/s speed=71.2x    frame=1405746 fps=4276 q=-1.0 size=24964352kB time=06:30:16.28 bitrate=8733.6kbits/s speed=71.2x    frame=1407460 fps=4275 q=-1.0 size=25000192kB time=06:30:44.82 bitrate=8735.5kbits/s speed=71.2x    frame=1409430 fps=4274 q=-1.0 size=25040896kB time=06:31:17.63 bitrate=8737.5kbits/s speed=71.2x    frame=1411371 fps=4274 q=-1.0 size=25076224kB time=06:31:49.94 bitrate=8737.8kbits/s speed=71.2x    frame=1413327 fps=4273 q=-1.0 size=25116928kB time=06:32:22.50 bitrate=8739.8kbits/s speed=71.2x    frame=1415689 fps=4274 q=-1.0 size=25157888kB time=06:33:01.88 bitrate=8739.5kbits/s speed=71.2x    frame=1417396 fps=4272 q=-1.0 size=25193216kB time=06:33:30.28 bitrate=8741.2kbits/s speed=71.2x    frame=1419339 fps=4272 q=-1.0 size=25233408kB time=06:34:02.64 bitrate=8743.2kbits/s speed=71.2x    frame=1421232 fps=4271 q=-1.0 size=25272832kB time=06:34:34.15 bitrate=8745.2kbits/s speed=71.1x    frame=1423130 fps=4270 q=-1.0 size=25312512kB time=06:35:05.78 bitrate=8747.2kbits/s speed=71.1x    frame=1425101 fps=4270 q=-1.0 size=25353216kB time=06:35:38.61 bitrate=8749.2kbits/s speed=71.1x    frame=1426895 fps=4269 q=-1.0 size=25390592kB time=06:36:08.49 bitrate=8751.1kbits/s speed=71.1x    frame=1428840 fps=4268 q=-1.0 size=25430784kB time=06:36:40.89 bitrate=8753.0kbits/s speed=71.1x    frame=1430770 fps=4268 q=-1.0 size=25471232kB time=06:37:13.04 bitrate=8755.1kbits/s speed=71.1x    frame=1432715 fps=4267 q=-1.0 size=25511424kB time=06:37:45.41 bitrate=8757.0kbits/s speed=71.1x    frame=1434619 fps=4266 q=-1.0 size=25551104kB time=06:38:17.16 bitrate=8759.0kbits/s speed=71.1x    frame=1436498 fps=4266 q=-1.0 size=25590016kB time=06:38:48.46 bitrate=8760.8kbits/s speed=71.1x    frame=1438075 fps=4264 q=-1.0 size=25622784kB time=06:39:14.73 bitrate=8762.4kbits/s speed=  71x    frame=1439848 fps=4263 q=-1.0 size=25659648kB time=06:39:44.26 bitrate=8764.2kbits/s speed=  71x    frame=1441755 fps=4262 q=-1.0 size=25699072kB time=06:40:16.03 bitrate=8766.1kbits/s speed=  71x    frame=1443720 fps=4262 q=-1.0 size=25739776kB time=06:40:48.75 bitrate=8768.0kbits/s speed=  71x    frame=1445466 fps=4261 q=-1.0 size=25776128kB time=06:41:17.84 bitrate=8769.8kbits/s speed=  71x    frame=1447076 fps=4259 q=-1.0 size=25809664kB time=06:41:44.66 bitrate=8771.4kbits/s speed=70.9x    frame=1449047 fps=4259 q=-1.0 size=25844992kB time=06:42:17.50 bitrate=8771.5kbits/s speed=70.9x    frame=1451345 fps=4259 q=-1.0 size=25884416kB time=06:42:55.76 bitrate=8771.0kbits/s speed=70.9x    frame=1453234 fps=4258 q=-1.0 size=25923584kB time=06:43:27.22 bitrate=8772.8kbits/s speed=70.9x    frame=1454879 fps=4257 q=-1.0 size=25957632kB time=06:43:54.62 bitrate=8774.4kbits/s speed=70.9x    frame=1456756 fps=4256 q=-1.0 size=25996800kB time=06:44:25.86 bitrate=8776.4kbits/s speed=70.9x    frame=1458590 fps=4255 q=-1.0 size=26034688kB time=06:44:56.42 bitrate=8778.1kbits/s speed=70.9x    frame=1460272 fps=4254 q=-1.0 size=26069760kB time=06:45:24.43 bitrate=8779.8kbits/s speed=70.9x    frame=1462243 fps=4254 q=-1.0 size=26110720kB time=06:45:57.27 bitrate=8781.7kbits/s speed=70.9x    frame=1463967 fps=4252 q=-1.0 size=26146560kB time=06:46:26.01 bitrate=8783.4kbits/s speed=70.8x    frame=1465695 fps=4251 q=-1.0 size=26182400kB time=06:46:54.80 bitrate=8785.1kbits/s speed=70.8x    frame=1467517 fps=4250 q=-1.0 size=26220544kB time=06:47:25.14 bitrate=8787.0kbits/s speed=70.8x    frame=1469178 fps=4249 q=-1.0 size=26254848kB time=06:47:52.79 bitrate=8788.5kbits/s speed=70.8x    frame=1470964 fps=4248 q=-1.0 size=26291968kB time=06:48:22.51 bitrate=8790.3kbits/s speed=70.8x    frame=1472759 fps=4247 q=-1.0 size=26329344kB time=06:48:52.45 bitrate=8792.0kbits/s speed=70.7x    frame=1474416 fps=4246 q=-1.0 size=26363648kB time=06:49:19.99 bitrate=8793.6kbits/s speed=70.7x    frame=1476208 fps=4245 q=-1.0 size=26401024kB time=06:49:49.86 bitrate=8795.4kbits/s speed=70.7x    frame=1477977 fps=4244 q=-1.0 size=26437376kB time=06:50:19.31 bitrate=8797.0kbits/s speed=70.7x    frame=1479921 fps=4243 q=-1.0 size=26477824kB time=06:50:51.70 bitrate=8798.8kbits/s speed=70.7x    frame=1482054 fps=4243 q=-1.0 size=26519040kB time=06:51:27.18 bitrate=8799.9kbits/s speed=70.7x    frame=1483863 fps=4242 q=-1.0 size=26555392kB time=06:51:57.36 bitrate=8801.2kbits/s speed=70.7x    frame=1485726 fps=4242 q=-1.0 size=26594304kB time=06:52:28.36 bitrate=8803.0kbits/s speed=70.7x    frame=1488059 fps=4242 q=-1.0 size=26635776kB time=06:53:07.24 bitrate=8802.9kbits/s speed=70.7x    frame=1490412 fps=4243 q=-1.0 size=26674944kB time=06:53:46.44 bitrate=8802.0kbits/s speed=70.7x    frame=1492384 fps=4243 q=-1.0 size=26716160kB time=06:54:19.29 bitrate=8803.9kbits/s speed=70.7x    frame=1494667 fps=4243 q=-1.0 size=26755328kB time=06:54:57.30 bitrate=8803.3kbits/s speed=70.7x    frame=1496546 fps=4242 q=-1.0 size=26794240kB time=06:55:28.57 bitrate=8805.1kbits/s speed=70.7x    frame=1498467 fps=4242 q=-1.0 size=26834176kB time=06:56:00.57 bitrate=8806.9kbits/s speed=70.7x    frame=1500224 fps=4241 q=-1.0 size=26871040kB time=06:56:29.84 bitrate=8808.7kbits/s speed=70.6x    frame=1502135 fps=4240 q=-1.0 size=26910464kB time=06:57:01.67 bitrate=8810.4kbits/s speed=70.6x    frame=1504127 fps=4240 q=-1.0 size=26951936kB time=06:57:34.81 bitrate=8812.3kbits/s speed=70.6x    frame=1505932 fps=4239 q=-1.0 size=26989568kB time=06:58:04.87 bitrate=8814.0kbits/s speed=70.6x    frame=1507862 fps=4238 q=-1.0 size=27029248kB time=06:58:37.03 bitrate=8815.7kbits/s speed=70.6x    frame=1510007 fps=4238 q=-1.0 size=27069184kB time=06:59:12.74 bitrate=8816.2kbits/s speed=70.6x    frame=1512240 fps=4239 q=-1.0 size=27106048kB time=06:59:49.92 bitrate=8815.1kbits/s speed=70.6x    frame=1514162 fps=4238 q=-1.0 size=27145984kB time=07:00:21.96 bitrate=8816.9kbits/s speed=70.6x    frame=1516077 fps=4238 q=-1.0 size=27185664kB time=07:00:53.86 bitrate=8818.6kbits/s speed=70.6x    frame=1517890 fps=4237 q=-1.0 size=27223296kB time=07:01:24.06 bitrate=8820.3kbits/s speed=70.6x    frame=1519750 fps=4236 q=-1.0 size=27261952kB time=07:01:55.04 bitrate=8822.0kbits/s speed=70.6x    frame=1521638 fps=4235 q=-1.0 size=27301120kB time=07:02:26.44 bitrate=8823.8kbits/s speed=70.5x    frame=1523570 fps=4235 q=-1.0 size=27341312kB time=07:02:58.65 bitrate=8825.5kbits/s speed=70.5x    frame=1525419 fps=4234 q=-1.0 size=27379968kB time=07:03:29.42 bitrate=8827.3kbits/s speed=70.5x    frame=1527389 fps=4234 q=-1.0 size=27420672kB time=07:04:02.22 bitrate=8829.0kbits/s speed=70.5x    frame=1529283 fps=4233 q=-1.0 size=27460096kB time=07:04:33.78 bitrate=8830.8kbits/s speed=70.5x    frame=1531157 fps=4232 q=-1.0 size=27499264kB time=07:05:05.01 bitrate=8832.5kbits/s speed=70.5x    frame=1533036 fps=4232 q=-1.0 size=27537920kB time=07:05:36.32 bitrate=8834.1kbits/s speed=70.5x    frame=1534787 fps=4231 q=-1.0 size=27574528kB time=07:06:05.47 bitrate=8835.8kbits/s speed=70.5x    frame=1536582 fps=4230 q=-1.0 size=27611648kB time=07:06:35.36 bitrate=8837.3kbits/s speed=70.5x    frame=1538498 fps=4229 q=-1.0 size=27651328kB time=07:07:07.29 bitrate=8839.0kbits/s speed=70.4x    frame=1540195 fps=4228 q=-1.0 size=27686912kB time=07:07:35.55 bitrate=8840.6kbits/s speed=70.4x    frame=1542080 fps=4227 q=-1.0 size=27725824kB time=07:08:06.96 bitrate=8842.2kbits/s speed=70.4x    frame=1543957 fps=4227 q=-1.0 size=27763456kB time=07:08:38.20 bitrate=8843.5kbits/s speed=70.4x    frame=1546041 fps=4227 q=-1.0 size=27799296kB time=07:09:12.89 bitrate=8843.0kbits/s speed=70.4x    frame=1547866 fps=4226 q=-1.0 size=27837440kB time=07:09:43.29 bitrate=8844.7kbits/s speed=70.4x    frame=1549726 fps=4225 q=-1.0 size=27876096kB time=07:10:14.26 bitrate=8846.3kbits/s speed=70.4x    frame=1554399 fps=4232 q=-1.0 size=27912448kB time=07:11:32.14 bitrate=8831.2kbits/s speed=70.5x    frame=1560185 fps=4242 q=-1.0 size=27949056kB time=07:13:08.51 bitrate=8810.0kbits/s speed=70.7x    frame=1565327 fps=4250 q=-1.0 size=27984128kB time=07:14:34.15 bitrate=8792.1kbits/s speed=70.8x    frame=1566670 fps=4253 q=-1.0 Lsize=27993339kB time=07:14:56.54 bitrate=8787.4kbits/s speed=70.8x    
video:27319479kB audio:621405kB subtitle:0kB other streams:0kB global headers:0kB muxing overhead: 0.187736%
